<mxfile host="app.diagrams.net" agent="Mozilla/5.0 (Macintosh; Intel Mac OS X 10_15_7) AppleWebKit/537.36 (KHTML, like Gecko) Chrome/132.0.0.0 Safari/537.36" version="26.0.11">
  <diagram name="第 1 页" id="N2pCWKcpQh92S1CmUHvd">
    <mxGraphModel dx="2093" dy="981" grid="1" gridSize="10" guides="1" tooltips="1" connect="1" arrows="1" fold="1" page="1" pageScale="1" pageWidth="3300" pageHeight="4681" math="0" shadow="0">
      <root>
        <mxCell id="0" />
        <mxCell id="1" parent="0" />
        <mxCell id="_x4vGPY0edFWdDwLkudP-1" value="" style="rounded=0;whiteSpace=wrap;html=1;dashed=1;strokeWidth=2;strokeColor=#FF3333;fillColor=none;" parent="1" vertex="1">
          <mxGeometry x="1210" y="60" width="500" height="2120" as="geometry" />
        </mxCell>
        <mxCell id="_x4vGPY0edFWdDwLkudP-2" value="" style="rounded=0;whiteSpace=wrap;html=1;dashed=1;strokeColor=#FF3333;strokeWidth=2;fillColor=none;shadow=1;" parent="1" vertex="1">
          <mxGeometry x="105" y="75" width="1090" height="2120" as="geometry" />
        </mxCell>
        <mxCell id="_x4vGPY0edFWdDwLkudP-3" value="借款" style="shape=umlLifeline;perimeter=lifelinePerimeter;whiteSpace=wrap;html=1;container=1;dropTarget=0;collapsible=0;recursiveResize=0;outlineConnect=0;portConstraint=eastwest;newEdgeStyle={&quot;curved&quot;:0,&quot;rounded&quot;:0};strokeWidth=2;" parent="1" vertex="1">
          <mxGeometry x="190" y="90" width="110" height="1980" as="geometry" />
        </mxCell>
        <mxCell id="_x4vGPY0edFWdDwLkudP-4" value="" style="html=1;points=[[0,0,0,0,5],[0,1,0,0,-5],[1,0,0,0,5],[1,1,0,0,-5]];perimeter=orthogonalPerimeter;outlineConnect=0;targetShapes=umlLifeline;portConstraint=eastwest;newEdgeStyle={&quot;curved&quot;:0,&quot;rounded&quot;:0};" parent="_x4vGPY0edFWdDwLkudP-3" vertex="1">
          <mxGeometry x="45" y="80" width="20" height="550" as="geometry" />
        </mxCell>
        <mxCell id="_x4vGPY0edFWdDwLkudP-5" value="" style="html=1;points=[[0,0,0,0,5],[0,1,0,0,-5],[1,0,0,0,5],[1,1,0,0,-5]];perimeter=orthogonalPerimeter;outlineConnect=0;targetShapes=umlLifeline;portConstraint=eastwest;newEdgeStyle={&quot;curved&quot;:0,&quot;rounded&quot;:0};" parent="_x4vGPY0edFWdDwLkudP-3" vertex="1">
          <mxGeometry x="45" y="740" width="20" height="1240" as="geometry" />
        </mxCell>
        <mxCell id="_x4vGPY0edFWdDwLkudP-6" value="风控机审" style="shape=umlLifeline;perimeter=lifelinePerimeter;whiteSpace=wrap;html=1;container=1;dropTarget=0;collapsible=0;recursiveResize=0;outlineConnect=0;portConstraint=eastwest;newEdgeStyle={&quot;curved&quot;:0,&quot;rounded&quot;:0};strokeWidth=2;" parent="1" vertex="1">
          <mxGeometry x="470" y="90" width="110" height="2070" as="geometry" />
        </mxCell>
        <mxCell id="_x4vGPY0edFWdDwLkudP-7" value="" style="html=1;points=[[0,0,0,0,5],[0,1,0,0,-5],[1,0,0,0,5],[1,1,0,0,-5]];perimeter=orthogonalPerimeter;outlineConnect=0;targetShapes=umlLifeline;portConstraint=eastwest;newEdgeStyle={&quot;curved&quot;:0,&quot;rounded&quot;:0};" parent="_x4vGPY0edFWdDwLkudP-6" vertex="1">
          <mxGeometry x="45" y="80" width="20" height="270" as="geometry" />
        </mxCell>
        <mxCell id="_x4vGPY0edFWdDwLkudP-8" value="" style="endArrow=classic;html=1;rounded=0;strokeWidth=2;" parent="_x4vGPY0edFWdDwLkudP-6" source="_x4vGPY0edFWdDwLkudP-7" target="_x4vGPY0edFWdDwLkudP-7" edge="1">
          <mxGeometry width="50" height="50" relative="1" as="geometry">
            <mxPoint x="70" y="100" as="sourcePoint" />
            <mxPoint x="215" y="140" as="targetPoint" />
            <Array as="points">
              <mxPoint x="100" y="100" />
              <mxPoint x="100" y="140" />
            </Array>
          </mxGeometry>
        </mxCell>
        <mxCell id="_x4vGPY0edFWdDwLkudP-9" value="查征前风控" style="edgeLabel;html=1;align=center;verticalAlign=middle;resizable=0;points=[];" parent="_x4vGPY0edFWdDwLkudP-8" vertex="1" connectable="0">
          <mxGeometry x="-0.0111" y="1" relative="1" as="geometry">
            <mxPoint as="offset" />
          </mxGeometry>
        </mxCell>
        <mxCell id="_x4vGPY0edFWdDwLkudP-10" value="" style="endArrow=classic;html=1;rounded=0;strokeWidth=2;" parent="_x4vGPY0edFWdDwLkudP-6" source="_x4vGPY0edFWdDwLkudP-7" target="_x4vGPY0edFWdDwLkudP-7" edge="1">
          <mxGeometry width="50" height="50" relative="1" as="geometry">
            <mxPoint x="70" y="160" as="sourcePoint" />
            <mxPoint x="70" y="200" as="targetPoint" />
            <Array as="points">
              <mxPoint x="100" y="160" />
              <mxPoint x="100" y="200" />
            </Array>
          </mxGeometry>
        </mxCell>
        <mxCell id="_x4vGPY0edFWdDwLkudP-11" value="查征路由" style="edgeLabel;html=1;align=center;verticalAlign=middle;resizable=0;points=[];" parent="_x4vGPY0edFWdDwLkudP-10" vertex="1" connectable="0">
          <mxGeometry x="-0.0111" y="1" relative="1" as="geometry">
            <mxPoint as="offset" />
          </mxGeometry>
        </mxCell>
        <mxCell id="_x4vGPY0edFWdDwLkudP-12" value="" style="endArrow=classic;html=1;rounded=0;strokeWidth=2;" parent="_x4vGPY0edFWdDwLkudP-6" source="_x4vGPY0edFWdDwLkudP-7" target="_x4vGPY0edFWdDwLkudP-7" edge="1">
          <mxGeometry width="50" height="50" relative="1" as="geometry">
            <mxPoint x="70" y="290" as="sourcePoint" />
            <mxPoint x="70" y="330" as="targetPoint" />
            <Array as="points">
              <mxPoint x="105" y="290" />
              <mxPoint x="105" y="330" />
            </Array>
          </mxGeometry>
        </mxCell>
        <mxCell id="_x4vGPY0edFWdDwLkudP-13" value="查征后风控" style="edgeLabel;html=1;align=center;verticalAlign=middle;resizable=0;points=[];" parent="_x4vGPY0edFWdDwLkudP-12" vertex="1" connectable="0">
          <mxGeometry x="-0.0111" y="1" relative="1" as="geometry">
            <mxPoint as="offset" />
          </mxGeometry>
        </mxCell>
        <mxCell id="_x4vGPY0edFWdDwLkudP-14" value="" style="html=1;points=[[0,0,0,0,5],[0,1,0,0,-5],[1,0,0,0,5],[1,1,0,0,-5]];perimeter=orthogonalPerimeter;outlineConnect=0;targetShapes=umlLifeline;portConstraint=eastwest;newEdgeStyle={&quot;curved&quot;:0,&quot;rounded&quot;:0};" parent="_x4vGPY0edFWdDwLkudP-6" vertex="1">
          <mxGeometry x="45" y="450" width="20" height="180" as="geometry" />
        </mxCell>
        <mxCell id="_x4vGPY0edFWdDwLkudP-15" value="" style="endArrow=classic;html=1;rounded=0;strokeWidth=2;" parent="_x4vGPY0edFWdDwLkudP-6" source="_x4vGPY0edFWdDwLkudP-14" target="_x4vGPY0edFWdDwLkudP-14" edge="1">
          <mxGeometry width="50" height="50" relative="1" as="geometry">
            <mxPoint x="70" y="470" as="sourcePoint" />
            <mxPoint x="70" y="510" as="targetPoint" />
            <Array as="points">
              <mxPoint x="100" y="470" />
              <mxPoint x="100" y="490" />
              <mxPoint x="100" y="510" />
            </Array>
          </mxGeometry>
        </mxCell>
        <mxCell id="_x4vGPY0edFWdDwLkudP-16" value="交易规则" style="edgeLabel;html=1;align=center;verticalAlign=middle;resizable=0;points=[];" parent="_x4vGPY0edFWdDwLkudP-15" vertex="1" connectable="0">
          <mxGeometry x="-0.0111" y="1" relative="1" as="geometry">
            <mxPoint as="offset" />
          </mxGeometry>
        </mxCell>
        <mxCell id="_x4vGPY0edFWdDwLkudP-17" value="" style="html=1;points=[[0,0,0,0,5],[0,1,0,0,-5],[1,0,0,0,5],[1,1,0,0,-5]];perimeter=orthogonalPerimeter;outlineConnect=0;targetShapes=umlLifeline;portConstraint=eastwest;newEdgeStyle={&quot;curved&quot;:0,&quot;rounded&quot;:0};" parent="_x4vGPY0edFWdDwLkudP-6" vertex="1">
          <mxGeometry x="45" y="1210" width="20" height="300" as="geometry" />
        </mxCell>
        <mxCell id="_x4vGPY0edFWdDwLkudP-18" value="风控订单" style="shape=umlLifeline;perimeter=lifelinePerimeter;whiteSpace=wrap;html=1;container=1;dropTarget=0;collapsible=0;recursiveResize=0;outlineConnect=0;portConstraint=eastwest;newEdgeStyle={&quot;curved&quot;:0,&quot;rounded&quot;:0};strokeWidth=2;" parent="1" vertex="1">
          <mxGeometry x="330" y="90" width="110" height="2070" as="geometry" />
        </mxCell>
        <mxCell id="_x4vGPY0edFWdDwLkudP-19" value="" style="html=1;points=[[0,0,0,0,5],[0,1,0,0,-5],[1,0,0,0,5],[1,1,0,0,-5]];perimeter=orthogonalPerimeter;outlineConnect=0;targetShapes=umlLifeline;portConstraint=eastwest;newEdgeStyle={&quot;curved&quot;:0,&quot;rounded&quot;:0};" parent="_x4vGPY0edFWdDwLkudP-18" vertex="1">
          <mxGeometry x="45" y="80" width="20" height="320" as="geometry" />
        </mxCell>
        <mxCell id="_x4vGPY0edFWdDwLkudP-20" value="" style="endArrow=classic;html=1;rounded=0;strokeWidth=2;" parent="_x4vGPY0edFWdDwLkudP-18" source="_x4vGPY0edFWdDwLkudP-19" target="_x4vGPY0edFWdDwLkudP-19" edge="1">
          <mxGeometry width="50" height="50" relative="1" as="geometry">
            <mxPoint x="70" y="350" as="sourcePoint" />
            <mxPoint x="70" y="390" as="targetPoint" />
            <Array as="points">
              <mxPoint x="110" y="350" />
              <mxPoint x="110" y="390" />
            </Array>
          </mxGeometry>
        </mxCell>
        <mxCell id="_x4vGPY0edFWdDwLkudP-21" value="人审流程" style="edgeLabel;html=1;align=center;verticalAlign=middle;resizable=0;points=[];" parent="_x4vGPY0edFWdDwLkudP-20" vertex="1" connectable="0">
          <mxGeometry x="-0.0111" y="1" relative="1" as="geometry">
            <mxPoint as="offset" />
          </mxGeometry>
        </mxCell>
        <mxCell id="_x4vGPY0edFWdDwLkudP-22" value="" style="html=1;points=[[0,0,0,0,5],[0,1,0,0,-5],[1,0,0,0,5],[1,1,0,0,-5]];perimeter=orthogonalPerimeter;outlineConnect=0;targetShapes=umlLifeline;portConstraint=eastwest;newEdgeStyle={&quot;curved&quot;:0,&quot;rounded&quot;:0};" parent="_x4vGPY0edFWdDwLkudP-18" vertex="1">
          <mxGeometry x="45" y="450" width="20" height="180" as="geometry" />
        </mxCell>
        <mxCell id="_x4vGPY0edFWdDwLkudP-23" value="" style="html=1;points=[[0,0,0,0,5],[0,1,0,0,-5],[1,0,0,0,5],[1,1,0,0,-5]];perimeter=orthogonalPerimeter;outlineConnect=0;targetShapes=umlLifeline;portConstraint=eastwest;newEdgeStyle={&quot;curved&quot;:0,&quot;rounded&quot;:0};" parent="_x4vGPY0edFWdDwLkudP-18" vertex="1">
          <mxGeometry x="45" y="850" width="20" height="70" as="geometry" />
        </mxCell>
        <mxCell id="_x4vGPY0edFWdDwLkudP-24" value="风控数据" style="shape=umlLifeline;perimeter=lifelinePerimeter;whiteSpace=wrap;html=1;container=1;dropTarget=0;collapsible=0;recursiveResize=0;outlineConnect=0;portConstraint=eastwest;newEdgeStyle={&quot;curved&quot;:0,&quot;rounded&quot;:0};strokeWidth=2;" parent="1" vertex="1">
          <mxGeometry x="610" y="90" width="110" height="2080" as="geometry" />
        </mxCell>
        <mxCell id="_x4vGPY0edFWdDwLkudP-25" value="" style="html=1;points=[[0,0,0,0,5],[0,1,0,0,-5],[1,0,0,0,5],[1,1,0,0,-5]];perimeter=orthogonalPerimeter;outlineConnect=0;targetShapes=umlLifeline;portConstraint=eastwest;newEdgeStyle={&quot;curved&quot;:0,&quot;rounded&quot;:0};" parent="_x4vGPY0edFWdDwLkudP-24" vertex="1">
          <mxGeometry x="45" y="80" width="20" height="230" as="geometry" />
        </mxCell>
        <mxCell id="_x4vGPY0edFWdDwLkudP-26" value="" style="html=1;points=[[0,0,0,0,5],[0,1,0,0,-5],[1,0,0,0,5],[1,1,0,0,-5]];perimeter=orthogonalPerimeter;outlineConnect=0;targetShapes=umlLifeline;portConstraint=eastwest;newEdgeStyle={&quot;curved&quot;:0,&quot;rounded&quot;:0};" parent="_x4vGPY0edFWdDwLkudP-24" vertex="1">
          <mxGeometry x="45" y="450" width="20" height="180" as="geometry" />
        </mxCell>
        <mxCell id="_x4vGPY0edFWdDwLkudP-27" value="" style="html=1;points=[[0,0,0,0,5],[0,1,0,0,-5],[1,0,0,0,5],[1,1,0,0,-5]];perimeter=orthogonalPerimeter;outlineConnect=0;targetShapes=umlLifeline;portConstraint=eastwest;newEdgeStyle={&quot;curved&quot;:0,&quot;rounded&quot;:0};" parent="_x4vGPY0edFWdDwLkudP-24" vertex="1">
          <mxGeometry x="45" y="1260" width="20" height="140" as="geometry" />
        </mxCell>
        <mxCell id="_x4vGPY0edFWdDwLkudP-28" value="资产" style="shape=umlLifeline;perimeter=lifelinePerimeter;whiteSpace=wrap;html=1;container=1;dropTarget=0;collapsible=0;recursiveResize=0;outlineConnect=0;portConstraint=eastwest;newEdgeStyle={&quot;curved&quot;:0,&quot;rounded&quot;:0};strokeWidth=2;" parent="1" vertex="1">
          <mxGeometry x="750" y="90" width="110" height="2080" as="geometry" />
        </mxCell>
        <mxCell id="_x4vGPY0edFWdDwLkudP-29" value="" style="html=1;points=[[0,0,0,0,5],[0,1,0,0,-5],[1,0,0,0,5],[1,1,0,0,-5]];perimeter=orthogonalPerimeter;outlineConnect=0;targetShapes=umlLifeline;portConstraint=eastwest;newEdgeStyle={&quot;curved&quot;:0,&quot;rounded&quot;:0};" parent="_x4vGPY0edFWdDwLkudP-28" vertex="1">
          <mxGeometry x="45" y="740" width="20" height="110" as="geometry" />
        </mxCell>
        <mxCell id="_x4vGPY0edFWdDwLkudP-30" value="" style="endArrow=classic;html=1;rounded=0;strokeWidth=2;" parent="_x4vGPY0edFWdDwLkudP-28" source="_x4vGPY0edFWdDwLkudP-29" target="_x4vGPY0edFWdDwLkudP-29" edge="1">
          <mxGeometry width="50" height="50" relative="1" as="geometry">
            <mxPoint x="70" y="760" as="sourcePoint" />
            <mxPoint x="70" y="800" as="targetPoint" />
            <Array as="points">
              <mxPoint x="100" y="760" />
              <mxPoint x="100" y="780" />
              <mxPoint x="100" y="800" />
            </Array>
          </mxGeometry>
        </mxCell>
        <mxCell id="_x4vGPY0edFWdDwLkudP-31" value="额度扣减" style="edgeLabel;html=1;align=center;verticalAlign=middle;resizable=0;points=[];" parent="_x4vGPY0edFWdDwLkudP-30" vertex="1" connectable="0">
          <mxGeometry x="-0.0111" y="1" relative="1" as="geometry">
            <mxPoint as="offset" />
          </mxGeometry>
        </mxCell>
        <mxCell id="_x4vGPY0edFWdDwLkudP-32" value="" style="html=1;points=[[0,0,0,0,5],[0,1,0,0,-5],[1,0,0,0,5],[1,1,0,0,-5]];perimeter=orthogonalPerimeter;outlineConnect=0;targetShapes=umlLifeline;portConstraint=eastwest;newEdgeStyle={&quot;curved&quot;:0,&quot;rounded&quot;:0};" parent="_x4vGPY0edFWdDwLkudP-28" vertex="1">
          <mxGeometry x="45" y="1030" width="20" height="130" as="geometry" />
        </mxCell>
        <mxCell id="_x4vGPY0edFWdDwLkudP-33" value="" style="html=1;points=[[0,0,0,0,5],[0,1,0,0,-5],[1,0,0,0,5],[1,1,0,0,-5]];perimeter=orthogonalPerimeter;outlineConnect=0;targetShapes=umlLifeline;portConstraint=eastwest;newEdgeStyle={&quot;curved&quot;:0,&quot;rounded&quot;:0};" parent="_x4vGPY0edFWdDwLkudP-28" vertex="1">
          <mxGeometry x="45" y="1590" width="20" height="80" as="geometry" />
        </mxCell>
        <mxCell id="_x4vGPY0edFWdDwLkudP-34" value="" style="html=1;points=[[0,0,0,0,5],[0,1,0,0,-5],[1,0,0,0,5],[1,1,0,0,-5]];perimeter=orthogonalPerimeter;outlineConnect=0;targetShapes=umlLifeline;portConstraint=eastwest;newEdgeStyle={&quot;curved&quot;:0,&quot;rounded&quot;:0};" parent="_x4vGPY0edFWdDwLkudP-28" vertex="1">
          <mxGeometry x="45" y="1720" width="20" height="80" as="geometry" />
        </mxCell>
        <mxCell id="_x4vGPY0edFWdDwLkudP-35" value="" style="html=1;points=[[0,0,0,0,5],[0,1,0,0,-5],[1,0,0,0,5],[1,1,0,0,-5]];perimeter=orthogonalPerimeter;outlineConnect=0;targetShapes=umlLifeline;portConstraint=eastwest;newEdgeStyle={&quot;curved&quot;:0,&quot;rounded&quot;:0};" parent="_x4vGPY0edFWdDwLkudP-28" vertex="1">
          <mxGeometry x="45" y="1860" width="20" height="80" as="geometry" />
        </mxCell>
        <mxCell id="_x4vGPY0edFWdDwLkudP-36" value="资金平台" style="shape=umlLifeline;perimeter=lifelinePerimeter;whiteSpace=wrap;html=1;container=1;dropTarget=0;collapsible=0;recursiveResize=0;outlineConnect=0;portConstraint=eastwest;newEdgeStyle={&quot;curved&quot;:0,&quot;rounded&quot;:0};strokeWidth=2;" parent="1" vertex="1">
          <mxGeometry x="890" y="90" width="110" height="2080" as="geometry" />
        </mxCell>
        <mxCell id="_x4vGPY0edFWdDwLkudP-37" value="" style="html=1;points=[[0,0,0,0,5],[0,1,0,0,-5],[1,0,0,0,5],[1,1,0,0,-5]];perimeter=orthogonalPerimeter;outlineConnect=0;targetShapes=umlLifeline;portConstraint=eastwest;newEdgeStyle={&quot;curved&quot;:0,&quot;rounded&quot;:0};" parent="_x4vGPY0edFWdDwLkudP-36" vertex="1">
          <mxGeometry x="45" y="740" width="20" height="260" as="geometry" />
        </mxCell>
        <mxCell id="_x4vGPY0edFWdDwLkudP-38" value="" style="endArrow=classic;html=1;rounded=0;strokeWidth=2;" parent="_x4vGPY0edFWdDwLkudP-36" source="_x4vGPY0edFWdDwLkudP-37" target="_x4vGPY0edFWdDwLkudP-37" edge="1">
          <mxGeometry width="50" height="50" relative="1" as="geometry">
            <mxPoint x="70" y="830" as="sourcePoint" />
            <mxPoint x="70" y="870" as="targetPoint" />
            <Array as="points">
              <mxPoint x="100" y="830" />
              <mxPoint x="100" y="850" />
              <mxPoint x="100" y="870" />
            </Array>
          </mxGeometry>
        </mxCell>
        <mxCell id="_x4vGPY0edFWdDwLkudP-39" value="&lt;font color=&quot;#ff3333&quot;&gt;匹配组合中有越信项目&lt;/font&gt;" style="edgeLabel;html=1;align=center;verticalAlign=middle;resizable=0;points=[];" parent="_x4vGPY0edFWdDwLkudP-38" vertex="1" connectable="0">
          <mxGeometry x="-0.0111" y="1" relative="1" as="geometry">
            <mxPoint x="59" as="offset" />
          </mxGeometry>
        </mxCell>
        <mxCell id="_x4vGPY0edFWdDwLkudP-40" value="" style="endArrow=classic;html=1;rounded=0;strokeWidth=2;" parent="_x4vGPY0edFWdDwLkudP-36" source="_x4vGPY0edFWdDwLkudP-37" target="_x4vGPY0edFWdDwLkudP-37" edge="1">
          <mxGeometry width="50" height="50" relative="1" as="geometry">
            <mxPoint x="70" y="890" as="sourcePoint" />
            <mxPoint x="70" y="930" as="targetPoint" />
            <Array as="points">
              <mxPoint x="100" y="890" />
              <mxPoint x="100" y="910" />
              <mxPoint x="100" y="930" />
            </Array>
          </mxGeometry>
        </mxCell>
        <mxCell id="_x4vGPY0edFWdDwLkudP-41" value="&lt;font color=&quot;#ff3333&quot;&gt;C类资产（越信拒绝）&lt;/font&gt;" style="edgeLabel;html=1;align=center;verticalAlign=middle;resizable=0;points=[];" parent="_x4vGPY0edFWdDwLkudP-40" vertex="1" connectable="0">
          <mxGeometry x="-0.0111" y="1" relative="1" as="geometry">
            <mxPoint x="59" as="offset" />
          </mxGeometry>
        </mxCell>
        <mxCell id="_x4vGPY0edFWdDwLkudP-42" value="" style="endArrow=classic;html=1;rounded=0;strokeWidth=2;" parent="_x4vGPY0edFWdDwLkudP-36" source="_x4vGPY0edFWdDwLkudP-37" target="_x4vGPY0edFWdDwLkudP-37" edge="1">
          <mxGeometry width="50" height="50" relative="1" as="geometry">
            <mxPoint x="70" y="950" as="sourcePoint" />
            <mxPoint x="70" y="990" as="targetPoint" />
            <Array as="points">
              <mxPoint x="100" y="950" />
              <mxPoint x="100" y="970" />
              <mxPoint x="100" y="990" />
            </Array>
          </mxGeometry>
        </mxCell>
        <mxCell id="_x4vGPY0edFWdDwLkudP-43" value="&lt;font color=&quot;#ff3333&quot;&gt;匹配组合过滤掉越信项目&lt;/font&gt;" style="edgeLabel;html=1;align=center;verticalAlign=middle;resizable=0;points=[];" parent="_x4vGPY0edFWdDwLkudP-42" vertex="1" connectable="0">
          <mxGeometry x="-0.0111" y="1" relative="1" as="geometry">
            <mxPoint x="59" as="offset" />
          </mxGeometry>
        </mxCell>
        <mxCell id="_x4vGPY0edFWdDwLkudP-44" value="" style="html=1;points=[[0,0,0,0,5],[0,1,0,0,-5],[1,0,0,0,5],[1,1,0,0,-5]];perimeter=orthogonalPerimeter;outlineConnect=0;targetShapes=umlLifeline;portConstraint=eastwest;newEdgeStyle={&quot;curved&quot;:0,&quot;rounded&quot;:0};" parent="_x4vGPY0edFWdDwLkudP-36" vertex="1">
          <mxGeometry x="45" y="1030" width="20" height="130" as="geometry" />
        </mxCell>
        <mxCell id="_x4vGPY0edFWdDwLkudP-45" value="" style="endArrow=classic;html=1;rounded=0;strokeWidth=2;" parent="_x4vGPY0edFWdDwLkudP-36" source="_x4vGPY0edFWdDwLkudP-44" target="_x4vGPY0edFWdDwLkudP-44" edge="1">
          <mxGeometry width="50" height="50" relative="1" as="geometry">
            <mxPoint x="75" y="1040" as="sourcePoint" />
            <mxPoint x="75" y="1080" as="targetPoint" />
            <Array as="points">
              <mxPoint x="100" y="1040" />
              <mxPoint x="100" y="1060" />
              <mxPoint x="100" y="1080" />
            </Array>
          </mxGeometry>
        </mxCell>
        <mxCell id="_x4vGPY0edFWdDwLkudP-46" value="&lt;font color=&quot;#ff3333&quot;&gt;A类资产（越信通过）&lt;/font&gt;" style="edgeLabel;html=1;align=center;verticalAlign=middle;resizable=0;points=[];" parent="_x4vGPY0edFWdDwLkudP-45" vertex="1" connectable="0">
          <mxGeometry x="-0.0111" y="1" relative="1" as="geometry">
            <mxPoint x="59" as="offset" />
          </mxGeometry>
        </mxCell>
        <mxCell id="_x4vGPY0edFWdDwLkudP-47" value="" style="html=1;points=[[0,0,0,0,5],[0,1,0,0,-5],[1,0,0,0,5],[1,1,0,0,-5]];perimeter=orthogonalPerimeter;outlineConnect=0;targetShapes=umlLifeline;portConstraint=eastwest;newEdgeStyle={&quot;curved&quot;:0,&quot;rounded&quot;:0};" parent="_x4vGPY0edFWdDwLkudP-36" vertex="1">
          <mxGeometry x="45" y="1200" width="20" height="300" as="geometry" />
        </mxCell>
        <mxCell id="_x4vGPY0edFWdDwLkudP-48" value="" style="endArrow=classic;html=1;rounded=0;strokeWidth=2;" parent="_x4vGPY0edFWdDwLkudP-36" source="_x4vGPY0edFWdDwLkudP-47" target="_x4vGPY0edFWdDwLkudP-47" edge="1">
          <mxGeometry width="50" height="50" relative="1" as="geometry">
            <mxPoint x="75" y="1210" as="sourcePoint" />
            <mxPoint x="75" y="1250" as="targetPoint" />
            <Array as="points">
              <mxPoint x="100" y="1210" />
              <mxPoint x="100" y="1250" />
            </Array>
          </mxGeometry>
        </mxCell>
        <mxCell id="_x4vGPY0edFWdDwLkudP-49" value="&lt;font color=&quot;#ff3333&quot;&gt;B类资产（无越信担保审核）&lt;/font&gt;" style="edgeLabel;html=1;align=center;verticalAlign=middle;resizable=0;points=[];" parent="_x4vGPY0edFWdDwLkudP-48" vertex="1" connectable="0">
          <mxGeometry x="-0.0111" y="1" relative="1" as="geometry">
            <mxPoint x="69" as="offset" />
          </mxGeometry>
        </mxCell>
        <mxCell id="_x4vGPY0edFWdDwLkudP-50" value="" style="html=1;points=[[0,0,0,0,5],[0,1,0,0,-5],[1,0,0,0,5],[1,1,0,0,-5]];perimeter=orthogonalPerimeter;outlineConnect=0;targetShapes=umlLifeline;portConstraint=eastwest;newEdgeStyle={&quot;curved&quot;:0,&quot;rounded&quot;:0};" parent="_x4vGPY0edFWdDwLkudP-36" vertex="1">
          <mxGeometry x="45" y="1530" width="20" height="150" as="geometry" />
        </mxCell>
        <mxCell id="_x4vGPY0edFWdDwLkudP-51" value="" style="html=1;points=[[0,0,0,0,5],[0,1,0,0,-5],[1,0,0,0,5],[1,1,0,0,-5]];perimeter=orthogonalPerimeter;outlineConnect=0;targetShapes=umlLifeline;portConstraint=eastwest;newEdgeStyle={&quot;curved&quot;:0,&quot;rounded&quot;:0};" parent="_x4vGPY0edFWdDwLkudP-36" vertex="1">
          <mxGeometry x="45" y="1720" width="20" height="80" as="geometry" />
        </mxCell>
        <mxCell id="_x4vGPY0edFWdDwLkudP-52" value="" style="endArrow=classic;html=1;rounded=0;strokeWidth=2;" parent="_x4vGPY0edFWdDwLkudP-36" source="_x4vGPY0edFWdDwLkudP-51" target="_x4vGPY0edFWdDwLkudP-51" edge="1">
          <mxGeometry width="50" height="50" relative="1" as="geometry">
            <mxPoint x="70" y="1748" as="sourcePoint" />
            <mxPoint x="70" y="1788" as="targetPoint" />
            <Array as="points">
              <mxPoint x="110" y="1748" />
              <mxPoint x="110" y="1768" />
              <mxPoint x="110" y="1788" />
            </Array>
          </mxGeometry>
        </mxCell>
        <mxCell id="_x4vGPY0edFWdDwLkudP-53" value="内部处理" style="edgeLabel;html=1;align=center;verticalAlign=middle;resizable=0;points=[];" parent="_x4vGPY0edFWdDwLkudP-52" vertex="1" connectable="0">
          <mxGeometry x="-0.0111" y="1" relative="1" as="geometry">
            <mxPoint x="24" y="1" as="offset" />
          </mxGeometry>
        </mxCell>
        <mxCell id="_x4vGPY0edFWdDwLkudP-54" value="" style="html=1;points=[[0,0,0,0,5],[0,1,0,0,-5],[1,0,0,0,5],[1,1,0,0,-5]];perimeter=orthogonalPerimeter;outlineConnect=0;targetShapes=umlLifeline;portConstraint=eastwest;newEdgeStyle={&quot;curved&quot;:0,&quot;rounded&quot;:0};" parent="_x4vGPY0edFWdDwLkudP-36" vertex="1">
          <mxGeometry x="45" y="1860" width="20" height="80" as="geometry" />
        </mxCell>
        <mxCell id="_x4vGPY0edFWdDwLkudP-55" value="越信订单管&lt;div&gt;隆涛/谢宇轩&lt;/div&gt;" style="shape=umlLifeline;perimeter=lifelinePerimeter;whiteSpace=wrap;html=1;container=1;dropTarget=0;collapsible=0;recursiveResize=0;outlineConnect=0;portConstraint=eastwest;newEdgeStyle={&quot;curved&quot;:0,&quot;rounded&quot;:0};strokeWidth=2;" parent="1" vertex="1">
          <mxGeometry x="1240" y="90" width="110" height="2080" as="geometry" />
        </mxCell>
        <mxCell id="_x4vGPY0edFWdDwLkudP-56" value="" style="html=1;points=[[0,0,0,0,5],[0,1,0,0,-5],[1,0,0,0,5],[1,1,0,0,-5]];perimeter=orthogonalPerimeter;outlineConnect=0;targetShapes=umlLifeline;portConstraint=eastwest;newEdgeStyle={&quot;curved&quot;:0,&quot;rounded&quot;:0};" parent="_x4vGPY0edFWdDwLkudP-55" vertex="1">
          <mxGeometry x="45" y="180" width="20" height="130" as="geometry" />
        </mxCell>
        <mxCell id="_x4vGPY0edFWdDwLkudP-57" value="" style="html=1;points=[[0,0,0,0,5],[0,1,0,0,-5],[1,0,0,0,5],[1,1,0,0,-5]];perimeter=orthogonalPerimeter;outlineConnect=0;targetShapes=umlLifeline;portConstraint=eastwest;newEdgeStyle={&quot;curved&quot;:0,&quot;rounded&quot;:0};" parent="_x4vGPY0edFWdDwLkudP-55" vertex="1">
          <mxGeometry x="45" y="450" width="20" height="200" as="geometry" />
        </mxCell>
        <mxCell id="_x4vGPY0edFWdDwLkudP-58" value="" style="html=1;points=[[0,0,0,0,5],[0,1,0,0,-5],[1,0,0,0,5],[1,1,0,0,-5]];perimeter=orthogonalPerimeter;outlineConnect=0;targetShapes=umlLifeline;portConstraint=eastwest;newEdgeStyle={&quot;curved&quot;:0,&quot;rounded&quot;:0};" parent="_x4vGPY0edFWdDwLkudP-55" vertex="1">
          <mxGeometry x="45" y="1250" width="20" height="200" as="geometry" />
        </mxCell>
        <mxCell id="_x4vGPY0edFWdDwLkudP-59" value="央行查征前置(朝南)" style="shape=umlLifeline;perimeter=lifelinePerimeter;whiteSpace=wrap;html=1;container=1;dropTarget=0;collapsible=0;recursiveResize=0;outlineConnect=0;portConstraint=eastwest;newEdgeStyle={&quot;curved&quot;:0,&quot;rounded&quot;:0};strokeWidth=2;" parent="1" vertex="1">
          <mxGeometry x="1520" y="90" width="110" height="1910" as="geometry" />
        </mxCell>
        <mxCell id="_x4vGPY0edFWdDwLkudP-60" value="" style="html=1;points=[[0,0,0,0,5],[0,1,0,0,-5],[1,0,0,0,5],[1,1,0,0,-5]];perimeter=orthogonalPerimeter;outlineConnect=0;targetShapes=umlLifeline;portConstraint=eastwest;newEdgeStyle={&quot;curved&quot;:0,&quot;rounded&quot;:0};" parent="_x4vGPY0edFWdDwLkudP-59" vertex="1">
          <mxGeometry x="45" y="180" width="20" height="130" as="geometry" />
        </mxCell>
        <mxCell id="_x4vGPY0edFWdDwLkudP-61" value="" style="endArrow=classic;html=1;rounded=0;strokeWidth=2;strokeColor=#FF3333;" parent="_x4vGPY0edFWdDwLkudP-59" source="_x4vGPY0edFWdDwLkudP-60" target="_x4vGPY0edFWdDwLkudP-60" edge="1">
          <mxGeometry width="50" height="50" relative="1" as="geometry">
            <mxPoint x="70" y="230" as="sourcePoint" />
            <mxPoint x="70" y="260" as="targetPoint" />
            <Array as="points">
              <mxPoint x="110" y="230" />
              <mxPoint x="110" y="260" />
            </Array>
          </mxGeometry>
        </mxCell>
        <mxCell id="_x4vGPY0edFWdDwLkudP-62" value="&lt;font color=&quot;#ff3333&quot;&gt;查征+征信规则&lt;/font&gt;" style="edgeLabel;html=1;align=center;verticalAlign=middle;resizable=0;points=[];" parent="_x4vGPY0edFWdDwLkudP-61" vertex="1" connectable="0">
          <mxGeometry x="-0.0111" y="1" relative="1" as="geometry">
            <mxPoint as="offset" />
          </mxGeometry>
        </mxCell>
        <mxCell id="_x4vGPY0edFWdDwLkudP-63" value="" style="html=1;points=[[0,0,0,0,5],[0,1,0,0,-5],[1,0,0,0,5],[1,1,0,0,-5]];perimeter=orthogonalPerimeter;outlineConnect=0;targetShapes=umlLifeline;portConstraint=eastwest;newEdgeStyle={&quot;curved&quot;:0,&quot;rounded&quot;:0};" parent="_x4vGPY0edFWdDwLkudP-59" vertex="1">
          <mxGeometry x="45" y="530" width="20" height="130" as="geometry" />
        </mxCell>
        <mxCell id="_x4vGPY0edFWdDwLkudP-64" value="" style="html=1;points=[[0,0,0,0,5],[0,1,0,0,-5],[1,0,0,0,5],[1,1,0,0,-5]];perimeter=orthogonalPerimeter;outlineConnect=0;targetShapes=umlLifeline;portConstraint=eastwest;newEdgeStyle={&quot;curved&quot;:0,&quot;rounded&quot;:0};" parent="_x4vGPY0edFWdDwLkudP-59" vertex="1">
          <mxGeometry x="45" y="1250" width="20" height="200" as="geometry" />
        </mxCell>
        <mxCell id="_x4vGPY0edFWdDwLkudP-65" value="越信风控(隆涛)" style="shape=umlLifeline;perimeter=lifelinePerimeter;whiteSpace=wrap;html=1;container=1;dropTarget=0;collapsible=0;recursiveResize=0;outlineConnect=0;portConstraint=eastwest;newEdgeStyle={&quot;curved&quot;:0,&quot;rounded&quot;:0};strokeWidth=2;" parent="1" vertex="1">
          <mxGeometry x="1380" y="90" width="110" height="1910" as="geometry" />
        </mxCell>
        <mxCell id="_x4vGPY0edFWdDwLkudP-66" value="" style="html=1;points=[[0,0,0,0,5],[0,1,0,0,-5],[1,0,0,0,5],[1,1,0,0,-5]];perimeter=orthogonalPerimeter;outlineConnect=0;targetShapes=umlLifeline;portConstraint=eastwest;newEdgeStyle={&quot;curved&quot;:0,&quot;rounded&quot;:0};" parent="_x4vGPY0edFWdDwLkudP-65" vertex="1">
          <mxGeometry x="45" y="180" width="20" height="130" as="geometry" />
        </mxCell>
        <mxCell id="_x4vGPY0edFWdDwLkudP-67" value="" style="endArrow=classic;html=1;rounded=0;strokeWidth=2;strokeColor=#FF3333;" parent="_x4vGPY0edFWdDwLkudP-65" source="_x4vGPY0edFWdDwLkudP-66" target="_x4vGPY0edFWdDwLkudP-66" edge="1">
          <mxGeometry width="50" height="50" relative="1" as="geometry">
            <mxPoint x="70" y="270" as="sourcePoint" />
            <mxPoint x="70" y="300" as="targetPoint" />
            <Array as="points">
              <mxPoint x="105" y="270" />
              <mxPoint x="105" y="300" />
            </Array>
          </mxGeometry>
        </mxCell>
        <mxCell id="_x4vGPY0edFWdDwLkudP-68" value="&lt;font color=&quot;#ff3333&quot;&gt;查征后风控&lt;/font&gt;" style="edgeLabel;html=1;align=center;verticalAlign=middle;resizable=0;points=[];" parent="_x4vGPY0edFWdDwLkudP-67" vertex="1" connectable="0">
          <mxGeometry x="-0.0111" y="1" relative="1" as="geometry">
            <mxPoint as="offset" />
          </mxGeometry>
        </mxCell>
        <mxCell id="_x4vGPY0edFWdDwLkudP-69" value="" style="html=1;points=[[0,0,0,0,5],[0,1,0,0,-5],[1,0,0,0,5],[1,1,0,0,-5]];perimeter=orthogonalPerimeter;outlineConnect=0;targetShapes=umlLifeline;portConstraint=eastwest;newEdgeStyle={&quot;curved&quot;:0,&quot;rounded&quot;:0};" parent="_x4vGPY0edFWdDwLkudP-65" vertex="1">
          <mxGeometry x="45" y="450" width="20" height="210" as="geometry" />
        </mxCell>
        <mxCell id="_x4vGPY0edFWdDwLkudP-70" value="" style="html=1;points=[[0,0,0,0,5],[0,1,0,0,-5],[1,0,0,0,5],[1,1,0,0,-5]];perimeter=orthogonalPerimeter;outlineConnect=0;targetShapes=umlLifeline;portConstraint=eastwest;newEdgeStyle={&quot;curved&quot;:0,&quot;rounded&quot;:0};" parent="_x4vGPY0edFWdDwLkudP-65" vertex="1">
          <mxGeometry x="45" y="1250" width="20" height="200" as="geometry" />
        </mxCell>
        <mxCell id="_x4vGPY0edFWdDwLkudP-71" value="资金对接" style="shape=umlLifeline;perimeter=lifelinePerimeter;whiteSpace=wrap;html=1;container=1;dropTarget=0;collapsible=0;recursiveResize=0;outlineConnect=0;portConstraint=eastwest;newEdgeStyle={&quot;curved&quot;:0,&quot;rounded&quot;:0};strokeWidth=2;" parent="1" vertex="1">
          <mxGeometry x="1030" y="90" width="110" height="2090" as="geometry" />
        </mxCell>
        <mxCell id="_x4vGPY0edFWdDwLkudP-72" value="" style="html=1;points=[[0,0,0,0,5],[0,1,0,0,-5],[1,0,0,0,5],[1,1,0,0,-5]];perimeter=orthogonalPerimeter;outlineConnect=0;targetShapes=umlLifeline;portConstraint=eastwest;newEdgeStyle={&quot;curved&quot;:0,&quot;rounded&quot;:0};" parent="_x4vGPY0edFWdDwLkudP-71" vertex="1">
          <mxGeometry x="45" y="1090" width="20" height="70" as="geometry" />
        </mxCell>
        <mxCell id="_x4vGPY0edFWdDwLkudP-73" value="" style="endArrow=classic;html=1;rounded=0;strokeWidth=2;" parent="_x4vGPY0edFWdDwLkudP-71" source="_x4vGPY0edFWdDwLkudP-72" target="_x4vGPY0edFWdDwLkudP-72" edge="1">
          <mxGeometry width="50" height="50" relative="1" as="geometry">
            <mxPoint x="70" y="1110" as="sourcePoint" />
            <mxPoint x="70" y="1150" as="targetPoint" />
            <Array as="points">
              <mxPoint x="105" y="1110" />
              <mxPoint x="105" y="1130" />
              <mxPoint x="105" y="1150" />
            </Array>
          </mxGeometry>
        </mxCell>
        <mxCell id="_x4vGPY0edFWdDwLkudP-74" value="内部处理" style="edgeLabel;html=1;align=center;verticalAlign=middle;resizable=0;points=[];" parent="_x4vGPY0edFWdDwLkudP-73" vertex="1" connectable="0">
          <mxGeometry x="-0.0111" y="1" relative="1" as="geometry">
            <mxPoint x="24" y="1" as="offset" />
          </mxGeometry>
        </mxCell>
        <mxCell id="_x4vGPY0edFWdDwLkudP-75" value="" style="html=1;points=[[0,0,0,0,5],[0,1,0,0,-5],[1,0,0,0,5],[1,1,0,0,-5]];perimeter=orthogonalPerimeter;outlineConnect=0;targetShapes=umlLifeline;portConstraint=eastwest;newEdgeStyle={&quot;curved&quot;:0,&quot;rounded&quot;:0};" parent="_x4vGPY0edFWdDwLkudP-71" vertex="1">
          <mxGeometry x="45" y="1590" width="20" height="80" as="geometry" />
        </mxCell>
        <mxCell id="_x4vGPY0edFWdDwLkudP-76" value="" style="html=1;points=[[0,0,0,0,5],[0,1,0,0,-5],[1,0,0,0,5],[1,1,0,0,-5]];perimeter=orthogonalPerimeter;outlineConnect=0;targetShapes=umlLifeline;portConstraint=eastwest;newEdgeStyle={&quot;curved&quot;:0,&quot;rounded&quot;:0};" parent="_x4vGPY0edFWdDwLkudP-71" vertex="1">
          <mxGeometry x="45" y="1860" width="20" height="80" as="geometry" />
        </mxCell>
        <mxCell id="_x4vGPY0edFWdDwLkudP-77" value="" style="html=1;points=[[0,0,0,0,5],[0,1,0,0,-5],[1,0,0,0,5],[1,1,0,0,-5]];perimeter=orthogonalPerimeter;outlineConnect=0;targetShapes=umlLifeline;portConstraint=eastwest;newEdgeStyle={&quot;curved&quot;:0,&quot;rounded&quot;:0};" parent="_x4vGPY0edFWdDwLkudP-71" vertex="1">
          <mxGeometry x="45" y="1970" width="20" height="80" as="geometry" />
        </mxCell>
        <mxCell id="_x4vGPY0edFWdDwLkudP-78" value="" style="endArrow=block;html=1;rounded=0;strokeWidth=4;endFill=1;" parent="1" edge="1">
          <mxGeometry width="50" height="50" relative="1" as="geometry">
            <mxPoint x="170" y="200" as="sourcePoint" />
            <mxPoint x="220" y="200" as="targetPoint" />
          </mxGeometry>
        </mxCell>
        <mxCell id="_x4vGPY0edFWdDwLkudP-79" value="" style="endArrow=block;html=1;rounded=0;strokeWidth=2;endFill=1;" parent="1" edge="1">
          <mxGeometry width="50" height="50" relative="1" as="geometry">
            <mxPoint x="255" y="190" as="sourcePoint" />
            <mxPoint x="374.83" y="190" as="targetPoint" />
          </mxGeometry>
        </mxCell>
        <mxCell id="_x4vGPY0edFWdDwLkudP-80" value="单笔授信" style="edgeLabel;html=1;align=center;verticalAlign=middle;resizable=0;points=[];" parent="_x4vGPY0edFWdDwLkudP-79" vertex="1" connectable="0">
          <mxGeometry x="0.0292" y="-3" relative="1" as="geometry">
            <mxPoint y="-3" as="offset" />
          </mxGeometry>
        </mxCell>
        <mxCell id="_x4vGPY0edFWdDwLkudP-81" value="" style="endArrow=block;html=1;rounded=0;strokeWidth=2;endFill=1;" parent="1" source="_x4vGPY0edFWdDwLkudP-19" target="_x4vGPY0edFWdDwLkudP-7" edge="1">
          <mxGeometry width="50" height="50" relative="1" as="geometry">
            <mxPoint x="400" y="190" as="sourcePoint" />
            <mxPoint x="510" y="190" as="targetPoint" />
            <Array as="points">
              <mxPoint x="480" y="190" />
            </Array>
          </mxGeometry>
        </mxCell>
        <mxCell id="_x4vGPY0edFWdDwLkudP-82" value="机审" style="edgeLabel;html=1;align=center;verticalAlign=middle;resizable=0;points=[];" parent="_x4vGPY0edFWdDwLkudP-81" vertex="1" connectable="0">
          <mxGeometry x="0.0292" y="-3" relative="1" as="geometry">
            <mxPoint y="-3" as="offset" />
          </mxGeometry>
        </mxCell>
        <mxCell id="_x4vGPY0edFWdDwLkudP-83" value="" style="endArrow=block;html=1;rounded=0;strokeWidth=2;endFill=1;strokeColor=#FF3333;" parent="1" source="_x4vGPY0edFWdDwLkudP-7" target="_x4vGPY0edFWdDwLkudP-25" edge="1">
          <mxGeometry width="50" height="50" relative="1" as="geometry">
            <mxPoint x="540" y="340" as="sourcePoint" />
            <mxPoint x="650" y="340" as="targetPoint" />
            <Array as="points">
              <mxPoint x="610" y="340" />
            </Array>
          </mxGeometry>
        </mxCell>
        <mxCell id="_x4vGPY0edFWdDwLkudP-84" value="&lt;font color=&quot;#ff3333&quot;&gt;越信结果查询&lt;/font&gt;" style="edgeLabel;html=1;align=center;verticalAlign=middle;resizable=0;points=[];" parent="_x4vGPY0edFWdDwLkudP-83" vertex="1" connectable="0">
          <mxGeometry x="0.0292" y="-3" relative="1" as="geometry">
            <mxPoint y="-3" as="offset" />
          </mxGeometry>
        </mxCell>
        <mxCell id="_x4vGPY0edFWdDwLkudP-85" value="" style="endArrow=block;html=1;rounded=0;strokeWidth=1;endFill=1;strokeColor=#FF3333;" parent="1" source="_x4vGPY0edFWdDwLkudP-25" target="_x4vGPY0edFWdDwLkudP-7" edge="1">
          <mxGeometry width="50" height="50" relative="1" as="geometry">
            <mxPoint x="650" y="360" as="sourcePoint" />
            <mxPoint x="530" y="360" as="targetPoint" />
            <Array as="points">
              <mxPoint x="610" y="360" />
            </Array>
          </mxGeometry>
        </mxCell>
        <mxCell id="_x4vGPY0edFWdDwLkudP-86" value="&lt;font color=&quot;#ff3333&quot;&gt;结果返回&lt;/font&gt;" style="edgeLabel;html=1;align=center;verticalAlign=middle;resizable=0;points=[];" parent="_x4vGPY0edFWdDwLkudP-85" vertex="1" connectable="0">
          <mxGeometry x="0.0095" relative="1" as="geometry">
            <mxPoint as="offset" />
          </mxGeometry>
        </mxCell>
        <mxCell id="_x4vGPY0edFWdDwLkudP-87" value="" style="endArrow=block;html=1;rounded=0;strokeWidth=2;endFill=1;strokeColor=#FF3333;" parent="1" target="_x4vGPY0edFWdDwLkudP-56" edge="1">
          <mxGeometry width="50" height="50" relative="1" as="geometry">
            <mxPoint x="675" y="320" as="sourcePoint" />
            <mxPoint x="1280" y="320" as="targetPoint" />
            <Array as="points">
              <mxPoint x="755" y="320" />
            </Array>
          </mxGeometry>
        </mxCell>
        <mxCell id="_x4vGPY0edFWdDwLkudP-88" value="&lt;font color=&quot;#ff3333&quot;&gt;越信担保审核请求&lt;/font&gt;" style="edgeLabel;html=1;align=center;verticalAlign=middle;resizable=0;points=[];" parent="_x4vGPY0edFWdDwLkudP-87" vertex="1" connectable="0">
          <mxGeometry x="0.5557" y="1" relative="1" as="geometry">
            <mxPoint x="40" as="offset" />
          </mxGeometry>
        </mxCell>
        <mxCell id="_x4vGPY0edFWdDwLkudP-89" value="" style="endArrow=block;html=1;rounded=0;strokeWidth=1;endFill=1;strokeColor=#FF3333;" parent="1" edge="1">
          <mxGeometry width="50" height="50" relative="1" as="geometry">
            <mxPoint x="1285" y="340.0000000000001" as="sourcePoint" />
            <mxPoint x="675" y="340.0000000000001" as="targetPoint" />
            <Array as="points">
              <mxPoint x="1120" y="340" />
              <mxPoint x="1060" y="340" />
              <mxPoint x="760" y="340" />
            </Array>
          </mxGeometry>
        </mxCell>
        <mxCell id="_x4vGPY0edFWdDwLkudP-90" value="&lt;font color=&quot;#ff3333&quot;&gt;越信担保结果回调&lt;/font&gt;" style="edgeLabel;html=1;align=center;verticalAlign=middle;resizable=0;points=[];" parent="_x4vGPY0edFWdDwLkudP-89" vertex="1" connectable="0">
          <mxGeometry x="-0.6885" relative="1" as="geometry">
            <mxPoint as="offset" />
          </mxGeometry>
        </mxCell>
        <mxCell id="_x4vGPY0edFWdDwLkudP-91" value="" style="endArrow=block;html=1;rounded=0;strokeWidth=2;endFill=1;strokeColor=#FF3333;" parent="1" source="_x4vGPY0edFWdDwLkudP-25" target="_x4vGPY0edFWdDwLkudP-56" edge="1">
          <mxGeometry width="50" height="50" relative="1" as="geometry">
            <mxPoint x="680" y="360" as="sourcePoint" />
            <mxPoint x="1280" y="360" as="targetPoint" />
            <Array as="points">
              <mxPoint x="750" y="360" />
            </Array>
          </mxGeometry>
        </mxCell>
        <mxCell id="_x4vGPY0edFWdDwLkudP-92" value="&lt;font color=&quot;#ff3333&quot;&gt;越信结果主动查询&lt;/font&gt;" style="edgeLabel;html=1;align=center;verticalAlign=middle;resizable=0;points=[];" parent="_x4vGPY0edFWdDwLkudP-91" vertex="1" connectable="0">
          <mxGeometry x="0.5557" y="1" relative="1" as="geometry">
            <mxPoint x="40" as="offset" />
          </mxGeometry>
        </mxCell>
        <mxCell id="_x4vGPY0edFWdDwLkudP-93" value="" style="endArrow=block;html=1;rounded=0;strokeWidth=1;endFill=1;strokeColor=#FF3333;" parent="1" source="_x4vGPY0edFWdDwLkudP-56" target="_x4vGPY0edFWdDwLkudP-25" edge="1">
          <mxGeometry width="50" height="50" relative="1" as="geometry">
            <mxPoint x="1280" y="380" as="sourcePoint" />
            <mxPoint x="680" y="380.0000000000001" as="targetPoint" />
            <Array as="points">
              <mxPoint x="1125" y="380" />
              <mxPoint x="1065" y="380" />
              <mxPoint x="765" y="380" />
            </Array>
          </mxGeometry>
        </mxCell>
        <mxCell id="_x4vGPY0edFWdDwLkudP-94" value="&lt;font color=&quot;#ff3333&quot;&gt;越信结果返回&lt;/font&gt;" style="edgeLabel;html=1;align=center;verticalAlign=middle;resizable=0;points=[];" parent="_x4vGPY0edFWdDwLkudP-93" vertex="1" connectable="0">
          <mxGeometry x="-0.6885" relative="1" as="geometry">
            <mxPoint as="offset" />
          </mxGeometry>
        </mxCell>
        <mxCell id="_x4vGPY0edFWdDwLkudP-95" value="" style="endArrow=block;html=1;rounded=0;strokeWidth=2;endFill=1;strokeColor=#FF3333;" parent="1" target="_x4vGPY0edFWdDwLkudP-66" edge="1">
          <mxGeometry width="50" height="50" relative="1" as="geometry">
            <mxPoint x="1305" y="320" as="sourcePoint" />
            <mxPoint x="1420" y="320" as="targetPoint" />
            <Array as="points">
              <mxPoint x="1385" y="320" />
            </Array>
          </mxGeometry>
        </mxCell>
        <mxCell id="_x4vGPY0edFWdDwLkudP-96" value="&lt;font color=&quot;#ff3333&quot;&gt;担保审核&lt;/font&gt;" style="edgeLabel;html=1;align=center;verticalAlign=middle;resizable=0;points=[];" parent="_x4vGPY0edFWdDwLkudP-95" vertex="1" connectable="0">
          <mxGeometry x="0.0292" y="-3" relative="1" as="geometry">
            <mxPoint y="-3" as="offset" />
          </mxGeometry>
        </mxCell>
        <mxCell id="_x4vGPY0edFWdDwLkudP-97" value="" style="endArrow=block;html=1;rounded=0;strokeWidth=2;endFill=1;strokeColor=#FF3333;" parent="1" source="_x4vGPY0edFWdDwLkudP-56" target="_x4vGPY0edFWdDwLkudP-66" edge="1">
          <mxGeometry width="50" height="50" relative="1" as="geometry">
            <mxPoint x="1310" y="360" as="sourcePoint" />
            <mxPoint x="1420" y="360" as="targetPoint" />
            <Array as="points">
              <mxPoint x="1390" y="360" />
            </Array>
          </mxGeometry>
        </mxCell>
        <mxCell id="_x4vGPY0edFWdDwLkudP-98" value="&lt;font color=&quot;#ff3333&quot;&gt;主动查询&lt;/font&gt;" style="edgeLabel;html=1;align=center;verticalAlign=middle;resizable=0;points=[];" parent="_x4vGPY0edFWdDwLkudP-97" vertex="1" connectable="0">
          <mxGeometry x="0.0292" y="-3" relative="1" as="geometry">
            <mxPoint y="-3" as="offset" />
          </mxGeometry>
        </mxCell>
        <mxCell id="_x4vGPY0edFWdDwLkudP-99" value="" style="endArrow=block;html=1;rounded=0;strokeWidth=1;endFill=1;strokeColor=#FF3333;" parent="1" source="_x4vGPY0edFWdDwLkudP-66" target="_x4vGPY0edFWdDwLkudP-56" edge="1">
          <mxGeometry width="50" height="50" relative="1" as="geometry">
            <mxPoint x="1420" y="340" as="sourcePoint" />
            <mxPoint x="1310" y="340" as="targetPoint" />
            <Array as="points">
              <mxPoint x="1390" y="340" />
            </Array>
          </mxGeometry>
        </mxCell>
        <mxCell id="_x4vGPY0edFWdDwLkudP-100" value="&lt;font color=&quot;#ff3333&quot;&gt;结果回调&lt;/font&gt;" style="edgeLabel;html=1;align=center;verticalAlign=middle;resizable=0;points=[];" parent="_x4vGPY0edFWdDwLkudP-99" vertex="1" connectable="0">
          <mxGeometry x="-0.0793" y="-1" relative="1" as="geometry">
            <mxPoint as="offset" />
          </mxGeometry>
        </mxCell>
        <mxCell id="_x4vGPY0edFWdDwLkudP-101" value="" style="endArrow=block;html=1;rounded=0;strokeWidth=1;endFill=1;strokeColor=#FF3333;" parent="1" source="_x4vGPY0edFWdDwLkudP-66" target="_x4vGPY0edFWdDwLkudP-56" edge="1">
          <mxGeometry width="50" height="50" relative="1" as="geometry">
            <mxPoint x="1420" y="380" as="sourcePoint" />
            <mxPoint x="1310" y="380" as="targetPoint" />
            <Array as="points">
              <mxPoint x="1385" y="380" />
            </Array>
          </mxGeometry>
        </mxCell>
        <mxCell id="_x4vGPY0edFWdDwLkudP-102" value="&lt;font color=&quot;#ff3333&quot;&gt;结果回调&lt;/font&gt;" style="edgeLabel;html=1;align=center;verticalAlign=middle;resizable=0;points=[];" parent="_x4vGPY0edFWdDwLkudP-101" vertex="1" connectable="0">
          <mxGeometry x="-0.0364" relative="1" as="geometry">
            <mxPoint as="offset" />
          </mxGeometry>
        </mxCell>
        <mxCell id="_x4vGPY0edFWdDwLkudP-103" value="" style="endArrow=block;html=1;rounded=0;strokeWidth=2;endFill=1;strokeColor=#FF3333;" parent="1" source="_x4vGPY0edFWdDwLkudP-66" target="_x4vGPY0edFWdDwLkudP-60" edge="1">
          <mxGeometry width="50" height="50" relative="1" as="geometry">
            <mxPoint x="1450" y="320" as="sourcePoint" />
            <mxPoint x="1560" y="320" as="targetPoint" />
            <Array as="points">
              <mxPoint x="1520" y="320" />
            </Array>
          </mxGeometry>
        </mxCell>
        <mxCell id="_x4vGPY0edFWdDwLkudP-104" value="&lt;font color=&quot;#ff3333&quot;&gt;查征&lt;/font&gt;" style="edgeLabel;html=1;align=center;verticalAlign=middle;resizable=0;points=[];" parent="_x4vGPY0edFWdDwLkudP-103" vertex="1" connectable="0">
          <mxGeometry x="0.0292" y="-3" relative="1" as="geometry">
            <mxPoint y="-3" as="offset" />
          </mxGeometry>
        </mxCell>
        <mxCell id="_x4vGPY0edFWdDwLkudP-105" value="" style="endArrow=block;html=1;rounded=0;strokeWidth=2;endFill=1;strokeColor=#FF3333;" parent="1" source="_x4vGPY0edFWdDwLkudP-60" target="_x4vGPY0edFWdDwLkudP-66" edge="1">
          <mxGeometry width="50" height="50" relative="1" as="geometry">
            <mxPoint x="1560" y="340" as="sourcePoint" />
            <mxPoint x="1450" y="340" as="targetPoint" />
            <Array as="points">
              <mxPoint x="1525" y="340" />
            </Array>
          </mxGeometry>
        </mxCell>
        <mxCell id="_x4vGPY0edFWdDwLkudP-106" value="&lt;font color=&quot;#ff3333&quot;&gt;查征结果返回&lt;/font&gt;" style="edgeLabel;html=1;align=center;verticalAlign=middle;resizable=0;points=[];" parent="_x4vGPY0edFWdDwLkudP-105" vertex="1" connectable="0">
          <mxGeometry x="0.0068" y="1" relative="1" as="geometry">
            <mxPoint as="offset" />
          </mxGeometry>
        </mxCell>
        <mxCell id="_x4vGPY0edFWdDwLkudP-107" value="单笔授信" style="text;html=1;align=center;verticalAlign=middle;resizable=0;points=[];autosize=1;strokeColor=none;fillColor=none;" parent="1" vertex="1">
          <mxGeometry x="105" y="188" width="70" height="30" as="geometry" />
        </mxCell>
        <mxCell id="_x4vGPY0edFWdDwLkudP-108" value="" style="endArrow=block;html=1;rounded=0;strokeWidth=2;endFill=1;strokeColor=#FF3333;" parent="1" edge="1">
          <mxGeometry width="50" height="50" relative="1" as="geometry">
            <mxPoint x="515" y="400" as="sourcePoint" />
            <mxPoint x="395" y="400" as="targetPoint" />
            <Array as="points">
              <mxPoint x="480" y="400" />
            </Array>
          </mxGeometry>
        </mxCell>
        <mxCell id="_x4vGPY0edFWdDwLkudP-109" value="&lt;font style=&quot;color: rgb(255, 51, 51);&quot;&gt;机审结果&lt;/font&gt;&lt;div&gt;&lt;font style=&quot;color: rgb(255, 51, 51);&quot;&gt;包含查征结果&lt;/font&gt;&lt;/div&gt;&lt;div&gt;&lt;font style=&quot;color: rgb(255, 51, 51);&quot;&gt;附加信息&lt;/font&gt;&lt;/div&gt;" style="edgeLabel;html=1;align=center;verticalAlign=middle;resizable=0;points=[];" parent="_x4vGPY0edFWdDwLkudP-108" vertex="1" connectable="0">
          <mxGeometry x="0.0095" relative="1" as="geometry">
            <mxPoint as="offset" />
          </mxGeometry>
        </mxCell>
        <mxCell id="_x4vGPY0edFWdDwLkudP-110" value="" style="endArrow=block;html=1;rounded=0;strokeWidth=1;endFill=1;" parent="1" source="_x4vGPY0edFWdDwLkudP-19" target="_x4vGPY0edFWdDwLkudP-4" edge="1">
          <mxGeometry width="50" height="50" relative="1" as="geometry">
            <mxPoint x="370" y="480" as="sourcePoint" />
            <mxPoint x="260" y="480" as="targetPoint" />
            <Array as="points">
              <mxPoint x="345" y="480" />
            </Array>
          </mxGeometry>
        </mxCell>
        <mxCell id="_x4vGPY0edFWdDwLkudP-111" value="授信结果" style="edgeLabel;html=1;align=center;verticalAlign=middle;resizable=0;points=[];" parent="_x4vGPY0edFWdDwLkudP-110" vertex="1" connectable="0">
          <mxGeometry x="0.0095" relative="1" as="geometry">
            <mxPoint as="offset" />
          </mxGeometry>
        </mxCell>
        <mxCell id="_x4vGPY0edFWdDwLkudP-112" value="" style="endArrow=block;html=1;rounded=0;strokeWidth=4;endFill=1;" parent="1" edge="1">
          <mxGeometry width="50" height="50" relative="1" as="geometry">
            <mxPoint x="160" y="560" as="sourcePoint" />
            <mxPoint x="210" y="560" as="targetPoint" />
          </mxGeometry>
        </mxCell>
        <mxCell id="_x4vGPY0edFWdDwLkudP-113" value="循环交易" style="text;html=1;align=center;verticalAlign=middle;resizable=0;points=[];autosize=1;strokeColor=none;fillColor=none;" parent="1" vertex="1">
          <mxGeometry x="90" y="540" width="70" height="30" as="geometry" />
        </mxCell>
        <mxCell id="_x4vGPY0edFWdDwLkudP-114" value="" style="endArrow=block;html=1;rounded=0;strokeWidth=2;endFill=1;entryX=0.029;entryY=0.063;entryDx=0;entryDy=0;entryPerimeter=0;" parent="1" source="_x4vGPY0edFWdDwLkudP-4" target="_x4vGPY0edFWdDwLkudP-22" edge="1">
          <mxGeometry width="50" height="50" relative="1" as="geometry">
            <mxPoint x="260" y="560" as="sourcePoint" />
            <mxPoint x="370" y="560" as="targetPoint" />
          </mxGeometry>
        </mxCell>
        <mxCell id="_x4vGPY0edFWdDwLkudP-115" value="交易请求" style="edgeLabel;html=1;align=center;verticalAlign=middle;resizable=0;points=[];" parent="_x4vGPY0edFWdDwLkudP-114" vertex="1" connectable="0">
          <mxGeometry x="0.0292" y="-3" relative="1" as="geometry">
            <mxPoint y="-3" as="offset" />
          </mxGeometry>
        </mxCell>
        <mxCell id="_x4vGPY0edFWdDwLkudP-116" value="" style="endArrow=block;html=1;rounded=0;strokeWidth=2;endFill=1;" parent="1" source="_x4vGPY0edFWdDwLkudP-22" edge="1">
          <mxGeometry width="50" height="50" relative="1" as="geometry">
            <mxPoint x="400" y="560" as="sourcePoint" />
            <mxPoint x="515" y="560" as="targetPoint" />
          </mxGeometry>
        </mxCell>
        <mxCell id="_x4vGPY0edFWdDwLkudP-117" value="交易风控" style="edgeLabel;html=1;align=center;verticalAlign=middle;resizable=0;points=[];" parent="_x4vGPY0edFWdDwLkudP-116" vertex="1" connectable="0">
          <mxGeometry x="0.0292" y="-3" relative="1" as="geometry">
            <mxPoint y="-3" as="offset" />
          </mxGeometry>
        </mxCell>
        <mxCell id="_x4vGPY0edFWdDwLkudP-118" value="" style="endArrow=block;html=1;rounded=0;strokeWidth=2;endFill=1;strokeColor=#FF3333;" parent="1" edge="1">
          <mxGeometry width="50" height="50" relative="1" as="geometry">
            <mxPoint x="535" y="650" as="sourcePoint" />
            <mxPoint x="655" y="650" as="targetPoint" />
            <Array as="points">
              <mxPoint x="625" y="650" />
            </Array>
          </mxGeometry>
        </mxCell>
        <mxCell id="_x4vGPY0edFWdDwLkudP-119" value="&lt;span style=&quot;color: rgb(255, 51, 51);&quot;&gt;越信担保申请&lt;/span&gt;" style="edgeLabel;html=1;align=center;verticalAlign=middle;resizable=0;points=[];" parent="_x4vGPY0edFWdDwLkudP-118" vertex="1" connectable="0">
          <mxGeometry x="0.0292" y="-3" relative="1" as="geometry">
            <mxPoint y="-3" as="offset" />
          </mxGeometry>
        </mxCell>
        <mxCell id="_x4vGPY0edFWdDwLkudP-120" value="" style="endArrow=block;html=1;rounded=0;strokeWidth=1;endFill=1;strokeColor=#FF3333;" parent="1" source="_x4vGPY0edFWdDwLkudP-14" target="_x4vGPY0edFWdDwLkudP-26" edge="1">
          <mxGeometry width="50" height="50" relative="1" as="geometry">
            <mxPoint x="540" y="690" as="sourcePoint" />
            <mxPoint x="650" y="690" as="targetPoint" />
            <Array as="points">
              <mxPoint x="620" y="690" />
            </Array>
          </mxGeometry>
        </mxCell>
        <mxCell id="_x4vGPY0edFWdDwLkudP-121" value="&lt;font color=&quot;#ff3333&quot;&gt;结果查询&lt;/font&gt;" style="edgeLabel;html=1;align=center;verticalAlign=middle;resizable=0;points=[];" parent="_x4vGPY0edFWdDwLkudP-120" vertex="1" connectable="0">
          <mxGeometry x="0.0095" relative="1" as="geometry">
            <mxPoint as="offset" />
          </mxGeometry>
        </mxCell>
        <mxCell id="_x4vGPY0edFWdDwLkudP-122" value="" style="endArrow=block;html=1;rounded=0;strokeWidth=2;endFill=1;strokeColor=#FF3333;" parent="1" source="_x4vGPY0edFWdDwLkudP-26" target="_x4vGPY0edFWdDwLkudP-57" edge="1">
          <mxGeometry width="50" height="50" relative="1" as="geometry">
            <mxPoint x="680" y="650" as="sourcePoint" />
            <mxPoint x="1280" y="650" as="targetPoint" />
            <Array as="points">
              <mxPoint x="760" y="650" />
            </Array>
          </mxGeometry>
        </mxCell>
        <mxCell id="_x4vGPY0edFWdDwLkudP-123" value="&lt;font color=&quot;#ff3333&quot;&gt;越信担保审核请求&lt;/font&gt;" style="edgeLabel;html=1;align=center;verticalAlign=middle;resizable=0;points=[];" parent="_x4vGPY0edFWdDwLkudP-122" vertex="1" connectable="0">
          <mxGeometry x="0.5557" y="1" relative="1" as="geometry">
            <mxPoint x="40" as="offset" />
          </mxGeometry>
        </mxCell>
        <mxCell id="_x4vGPY0edFWdDwLkudP-124" value="" style="endArrow=block;html=1;rounded=0;strokeWidth=1;endFill=1;strokeColor=#FF3333;" parent="1" source="_x4vGPY0edFWdDwLkudP-57" target="_x4vGPY0edFWdDwLkudP-26" edge="1">
          <mxGeometry width="50" height="50" relative="1" as="geometry">
            <mxPoint x="1280" y="670" as="sourcePoint" />
            <mxPoint x="680" y="670.0000000000001" as="targetPoint" />
            <Array as="points">
              <mxPoint x="1125" y="670" />
              <mxPoint x="1065" y="670" />
              <mxPoint x="765" y="670" />
            </Array>
          </mxGeometry>
        </mxCell>
        <mxCell id="_x4vGPY0edFWdDwLkudP-125" value="&lt;font color=&quot;#ff3333&quot;&gt;越信担保结果回调&lt;/font&gt;" style="edgeLabel;html=1;align=center;verticalAlign=middle;resizable=0;points=[];" parent="_x4vGPY0edFWdDwLkudP-124" vertex="1" connectable="0">
          <mxGeometry x="-0.6885" relative="1" as="geometry">
            <mxPoint as="offset" />
          </mxGeometry>
        </mxCell>
        <mxCell id="_x4vGPY0edFWdDwLkudP-126" value="" style="endArrow=block;html=1;rounded=0;strokeWidth=2;endFill=1;strokeColor=#FF3333;" parent="1" source="_x4vGPY0edFWdDwLkudP-26" target="_x4vGPY0edFWdDwLkudP-57" edge="1">
          <mxGeometry width="50" height="50" relative="1" as="geometry">
            <mxPoint x="680" y="690" as="sourcePoint" />
            <mxPoint x="1280" y="690" as="targetPoint" />
            <Array as="points">
              <mxPoint x="755" y="690" />
            </Array>
          </mxGeometry>
        </mxCell>
        <mxCell id="_x4vGPY0edFWdDwLkudP-127" value="&lt;font color=&quot;#ff3333&quot;&gt;越信结果主动查询&lt;/font&gt;" style="edgeLabel;html=1;align=center;verticalAlign=middle;resizable=0;points=[];" parent="_x4vGPY0edFWdDwLkudP-126" vertex="1" connectable="0">
          <mxGeometry x="0.5557" y="1" relative="1" as="geometry">
            <mxPoint x="40" as="offset" />
          </mxGeometry>
        </mxCell>
        <mxCell id="_x4vGPY0edFWdDwLkudP-128" value="" style="endArrow=block;html=1;rounded=0;strokeWidth=1;endFill=1;strokeColor=#FF3333;" parent="1" source="_x4vGPY0edFWdDwLkudP-57" target="_x4vGPY0edFWdDwLkudP-26" edge="1">
          <mxGeometry width="50" height="50" relative="1" as="geometry">
            <mxPoint x="1280" y="710" as="sourcePoint" />
            <mxPoint x="680" y="710" as="targetPoint" />
            <Array as="points">
              <mxPoint x="1130" y="710" />
              <mxPoint x="1070" y="710" />
              <mxPoint x="770" y="710" />
            </Array>
          </mxGeometry>
        </mxCell>
        <mxCell id="_x4vGPY0edFWdDwLkudP-129" value="&lt;font color=&quot;#ff3333&quot;&gt;越信结果返回&lt;/font&gt;" style="edgeLabel;html=1;align=center;verticalAlign=middle;resizable=0;points=[];" parent="_x4vGPY0edFWdDwLkudP-128" vertex="1" connectable="0">
          <mxGeometry x="-0.6885" relative="1" as="geometry">
            <mxPoint as="offset" />
          </mxGeometry>
        </mxCell>
        <mxCell id="_x4vGPY0edFWdDwLkudP-130" value="" style="endArrow=block;html=1;rounded=0;strokeWidth=2;endFill=1;strokeColor=#FF3333;" parent="1" edge="1">
          <mxGeometry width="50" height="50" relative="1" as="geometry">
            <mxPoint x="1305" y="650" as="sourcePoint" />
            <mxPoint x="1425" y="650" as="targetPoint" />
            <Array as="points">
              <mxPoint x="1385" y="650" />
            </Array>
          </mxGeometry>
        </mxCell>
        <mxCell id="_x4vGPY0edFWdDwLkudP-131" value="&lt;font color=&quot;#ff3333&quot;&gt;担保审核&lt;/font&gt;" style="edgeLabel;html=1;align=center;verticalAlign=middle;resizable=0;points=[];" parent="_x4vGPY0edFWdDwLkudP-130" vertex="1" connectable="0">
          <mxGeometry x="0.0292" y="-3" relative="1" as="geometry">
            <mxPoint y="-3" as="offset" />
          </mxGeometry>
        </mxCell>
        <mxCell id="_x4vGPY0edFWdDwLkudP-132" value="" style="endArrow=block;html=1;rounded=0;strokeWidth=2;endFill=1;strokeColor=#FF3333;" parent="1" edge="1">
          <mxGeometry width="50" height="50" relative="1" as="geometry">
            <mxPoint x="1305" y="690" as="sourcePoint" />
            <mxPoint x="1425" y="690" as="targetPoint" />
            <Array as="points">
              <mxPoint x="1390" y="690" />
            </Array>
          </mxGeometry>
        </mxCell>
        <mxCell id="_x4vGPY0edFWdDwLkudP-133" value="&lt;font color=&quot;#ff3333&quot;&gt;主动查询&lt;/font&gt;" style="edgeLabel;html=1;align=center;verticalAlign=middle;resizable=0;points=[];" parent="_x4vGPY0edFWdDwLkudP-132" vertex="1" connectable="0">
          <mxGeometry x="0.0292" y="-3" relative="1" as="geometry">
            <mxPoint y="-3" as="offset" />
          </mxGeometry>
        </mxCell>
        <mxCell id="_x4vGPY0edFWdDwLkudP-134" value="" style="endArrow=block;html=1;rounded=0;strokeWidth=1;endFill=1;strokeColor=#FF3333;" parent="1" edge="1">
          <mxGeometry width="50" height="50" relative="1" as="geometry">
            <mxPoint x="1425" y="670" as="sourcePoint" />
            <mxPoint x="1305" y="670" as="targetPoint" />
            <Array as="points">
              <mxPoint x="1390" y="670" />
            </Array>
          </mxGeometry>
        </mxCell>
        <mxCell id="_x4vGPY0edFWdDwLkudP-135" value="&lt;font color=&quot;#ff3333&quot;&gt;结果回调&lt;/font&gt;" style="edgeLabel;html=1;align=center;verticalAlign=middle;resizable=0;points=[];" parent="_x4vGPY0edFWdDwLkudP-134" vertex="1" connectable="0">
          <mxGeometry x="-0.0793" y="-1" relative="1" as="geometry">
            <mxPoint as="offset" />
          </mxGeometry>
        </mxCell>
        <mxCell id="_x4vGPY0edFWdDwLkudP-136" value="" style="endArrow=block;html=1;rounded=0;strokeWidth=1;endFill=1;strokeColor=#FF3333;" parent="1" edge="1">
          <mxGeometry width="50" height="50" relative="1" as="geometry">
            <mxPoint x="1425" y="710" as="sourcePoint" />
            <mxPoint x="1305" y="710" as="targetPoint" />
            <Array as="points">
              <mxPoint x="1385" y="710" />
            </Array>
          </mxGeometry>
        </mxCell>
        <mxCell id="_x4vGPY0edFWdDwLkudP-137" value="&lt;font color=&quot;#ff3333&quot;&gt;结果回调&lt;/font&gt;" style="edgeLabel;html=1;align=center;verticalAlign=middle;resizable=0;points=[];" parent="_x4vGPY0edFWdDwLkudP-136" vertex="1" connectable="0">
          <mxGeometry x="-0.0364" relative="1" as="geometry">
            <mxPoint as="offset" />
          </mxGeometry>
        </mxCell>
        <mxCell id="_x4vGPY0edFWdDwLkudP-138" value="" style="endArrow=classic;html=1;rounded=0;strokeWidth=2;strokeColor=#FF3333;" parent="1" edge="1">
          <mxGeometry width="50" height="50" relative="1" as="geometry">
            <mxPoint x="1445" y="690" as="sourcePoint" />
            <mxPoint x="1445" y="720" as="targetPoint" />
            <Array as="points">
              <mxPoint x="1485" y="690" />
              <mxPoint x="1485" y="720" />
            </Array>
          </mxGeometry>
        </mxCell>
        <mxCell id="_x4vGPY0edFWdDwLkudP-139" value="&lt;font color=&quot;#ff3333&quot;&gt;查征后风控&lt;/font&gt;" style="edgeLabel;html=1;align=center;verticalAlign=middle;resizable=0;points=[];" parent="_x4vGPY0edFWdDwLkudP-138" vertex="1" connectable="0">
          <mxGeometry x="-0.0111" y="1" relative="1" as="geometry">
            <mxPoint as="offset" />
          </mxGeometry>
        </mxCell>
        <mxCell id="_x4vGPY0edFWdDwLkudP-140" value="" style="endArrow=block;html=1;rounded=0;strokeWidth=2;endFill=1;strokeColor=#FF3333;" parent="1" edge="1">
          <mxGeometry width="50" height="50" relative="1" as="geometry">
            <mxPoint x="1445" y="650" as="sourcePoint" />
            <mxPoint x="1565" y="650" as="targetPoint" />
            <Array as="points">
              <mxPoint x="1520" y="650" />
            </Array>
          </mxGeometry>
        </mxCell>
        <mxCell id="_x4vGPY0edFWdDwLkudP-141" value="&lt;font color=&quot;#ff3333&quot;&gt;查征&lt;/font&gt;" style="edgeLabel;html=1;align=center;verticalAlign=middle;resizable=0;points=[];" parent="_x4vGPY0edFWdDwLkudP-140" vertex="1" connectable="0">
          <mxGeometry x="0.0292" y="-3" relative="1" as="geometry">
            <mxPoint y="-3" as="offset" />
          </mxGeometry>
        </mxCell>
        <mxCell id="_x4vGPY0edFWdDwLkudP-142" value="" style="endArrow=block;html=1;rounded=0;strokeWidth=2;endFill=1;strokeColor=#FF3333;" parent="1" edge="1">
          <mxGeometry width="50" height="50" relative="1" as="geometry">
            <mxPoint x="1565" y="670" as="sourcePoint" />
            <mxPoint x="1445" y="670" as="targetPoint" />
            <Array as="points">
              <mxPoint x="1525" y="670" />
            </Array>
          </mxGeometry>
        </mxCell>
        <mxCell id="_x4vGPY0edFWdDwLkudP-143" value="&lt;font color=&quot;#ff3333&quot;&gt;查征结果返回&lt;/font&gt;" style="edgeLabel;html=1;align=center;verticalAlign=middle;resizable=0;points=[];" parent="_x4vGPY0edFWdDwLkudP-142" vertex="1" connectable="0">
          <mxGeometry x="0.0068" y="1" relative="1" as="geometry">
            <mxPoint as="offset" />
          </mxGeometry>
        </mxCell>
        <mxCell id="_x4vGPY0edFWdDwLkudP-144" value="" style="endArrow=classic;html=1;rounded=0;strokeWidth=2;strokeColor=#FF3333;" parent="1" edge="1">
          <mxGeometry width="50" height="50" relative="1" as="geometry">
            <mxPoint x="1585" y="650" as="sourcePoint" />
            <mxPoint x="1585" y="680" as="targetPoint" />
            <Array as="points">
              <mxPoint x="1630" y="650" />
              <mxPoint x="1630" y="680" />
            </Array>
          </mxGeometry>
        </mxCell>
        <mxCell id="_x4vGPY0edFWdDwLkudP-145" value="&lt;font color=&quot;#ff3333&quot;&gt;查征+征信规则&lt;/font&gt;" style="edgeLabel;html=1;align=center;verticalAlign=middle;resizable=0;points=[];" parent="_x4vGPY0edFWdDwLkudP-144" vertex="1" connectable="0">
          <mxGeometry x="-0.0111" y="1" relative="1" as="geometry">
            <mxPoint as="offset" />
          </mxGeometry>
        </mxCell>
        <mxCell id="_x4vGPY0edFWdDwLkudP-146" value="" style="endArrow=block;html=1;rounded=0;strokeWidth=4;endFill=1;" parent="1" edge="1">
          <mxGeometry width="50" height="50" relative="1" as="geometry">
            <mxPoint x="160" y="850" as="sourcePoint" />
            <mxPoint x="210" y="850" as="targetPoint" />
          </mxGeometry>
        </mxCell>
        <mxCell id="_x4vGPY0edFWdDwLkudP-147" value="匹配" style="text;html=1;align=center;verticalAlign=middle;resizable=0;points=[];autosize=1;strokeColor=none;fillColor=none;" parent="1" vertex="1">
          <mxGeometry x="105" y="830" width="50" height="30" as="geometry" />
        </mxCell>
        <mxCell id="_x4vGPY0edFWdDwLkudP-148" value="" style="endArrow=block;html=1;rounded=0;strokeWidth=2;endFill=1;" parent="1" edge="1">
          <mxGeometry width="50" height="50" relative="1" as="geometry">
            <mxPoint x="255" y="850" as="sourcePoint" />
            <mxPoint x="795" y="850" as="targetPoint" />
          </mxGeometry>
        </mxCell>
        <mxCell id="_x4vGPY0edFWdDwLkudP-149" value="借款申请" style="edgeLabel;html=1;align=center;verticalAlign=middle;resizable=0;points=[];" parent="_x4vGPY0edFWdDwLkudP-148" vertex="1" connectable="0">
          <mxGeometry x="-0.3764" relative="1" as="geometry">
            <mxPoint x="17" as="offset" />
          </mxGeometry>
        </mxCell>
        <mxCell id="_x4vGPY0edFWdDwLkudP-150" value="" style="endArrow=block;html=1;rounded=0;strokeWidth=2;endFill=1;" parent="1" source="_x4vGPY0edFWdDwLkudP-29" target="_x4vGPY0edFWdDwLkudP-37" edge="1">
          <mxGeometry width="50" height="50" relative="1" as="geometry">
            <mxPoint x="820" y="920" as="sourcePoint" />
            <mxPoint x="930" y="920" as="targetPoint" />
            <Array as="points">
              <mxPoint x="910" y="920" />
            </Array>
          </mxGeometry>
        </mxCell>
        <mxCell id="_x4vGPY0edFWdDwLkudP-151" value="匹配请求" style="edgeLabel;html=1;align=center;verticalAlign=middle;resizable=0;points=[];" parent="_x4vGPY0edFWdDwLkudP-150" vertex="1" connectable="0">
          <mxGeometry x="0.0292" y="-3" relative="1" as="geometry">
            <mxPoint y="-3" as="offset" />
          </mxGeometry>
        </mxCell>
        <mxCell id="_x4vGPY0edFWdDwLkudP-152" value="" style="endArrow=block;html=1;rounded=0;strokeWidth=2;endFill=1;strokeColor=#FF3333;" parent="1" source="_x4vGPY0edFWdDwLkudP-37" target="_x4vGPY0edFWdDwLkudP-23" edge="1">
          <mxGeometry width="50" height="50" relative="1" as="geometry">
            <mxPoint x="930" y="970" as="sourcePoint" />
            <mxPoint x="820" y="970" as="targetPoint" />
            <Array as="points">
              <mxPoint x="915" y="970" />
            </Array>
          </mxGeometry>
        </mxCell>
        <mxCell id="_x4vGPY0edFWdDwLkudP-153" value="&lt;font color=&quot;#ff3333&quot;&gt;风控信息查询接口-越信担保审核结果查询&lt;/font&gt;" style="edgeLabel;html=1;align=center;verticalAlign=middle;resizable=0;points=[];" parent="_x4vGPY0edFWdDwLkudP-152" vertex="1" connectable="0">
          <mxGeometry x="0.1137" y="3" relative="1" as="geometry">
            <mxPoint as="offset" />
          </mxGeometry>
        </mxCell>
        <mxCell id="_x4vGPY0edFWdDwLkudP-154" value="" style="endArrow=block;html=1;rounded=0;strokeWidth=2;endFill=1;" parent="1" edge="1">
          <mxGeometry width="50" height="50" relative="1" as="geometry">
            <mxPoint x="395" y="990" as="sourcePoint" />
            <mxPoint x="935" y="990" as="targetPoint" />
            <Array as="points">
              <mxPoint x="915" y="990" />
            </Array>
          </mxGeometry>
        </mxCell>
        <mxCell id="_x4vGPY0edFWdDwLkudP-155" value="返回结果" style="edgeLabel;html=1;align=center;verticalAlign=middle;resizable=0;points=[];" parent="_x4vGPY0edFWdDwLkudP-154" vertex="1" connectable="0">
          <mxGeometry x="-0.2201" y="-3" relative="1" as="geometry">
            <mxPoint as="offset" />
          </mxGeometry>
        </mxCell>
        <mxCell id="_x4vGPY0edFWdDwLkudP-156" value="" style="endArrow=block;html=1;rounded=0;strokeWidth=2;endFill=1;" parent="1" edge="1">
          <mxGeometry width="50" height="50" relative="1" as="geometry">
            <mxPoint x="955" y="1200" as="sourcePoint" />
            <mxPoint x="1075" y="1200" as="targetPoint" />
            <Array as="points">
              <mxPoint x="1050" y="1200" />
            </Array>
          </mxGeometry>
        </mxCell>
        <mxCell id="_x4vGPY0edFWdDwLkudP-157" value="" style="endArrow=block;html=1;rounded=0;strokeWidth=2;endFill=1;" parent="1" edge="1">
          <mxGeometry width="50" height="50" relative="1" as="geometry">
            <mxPoint x="1075" y="1220" as="sourcePoint" />
            <mxPoint x="955" y="1220" as="targetPoint" />
            <Array as="points">
              <mxPoint x="1050" y="1220" />
            </Array>
          </mxGeometry>
        </mxCell>
        <mxCell id="_x4vGPY0edFWdDwLkudP-158" value="授信结果" style="edgeLabel;html=1;align=center;verticalAlign=middle;resizable=0;points=[];" parent="_x4vGPY0edFWdDwLkudP-157" vertex="1" connectable="0">
          <mxGeometry x="0.0192" relative="1" as="geometry">
            <mxPoint as="offset" />
          </mxGeometry>
        </mxCell>
        <mxCell id="_x4vGPY0edFWdDwLkudP-159" value="" style="endArrow=block;html=1;rounded=0;strokeWidth=2;endFill=1;" parent="1" source="_x4vGPY0edFWdDwLkudP-44" target="_x4vGPY0edFWdDwLkudP-32" edge="1">
          <mxGeometry width="50" height="50" relative="1" as="geometry">
            <mxPoint x="930" y="1220" as="sourcePoint" />
            <mxPoint x="820" y="1220" as="targetPoint" />
            <Array as="points">
              <mxPoint x="905" y="1220" />
            </Array>
          </mxGeometry>
        </mxCell>
        <mxCell id="_x4vGPY0edFWdDwLkudP-160" value="匹配结果" style="edgeLabel;html=1;align=center;verticalAlign=middle;resizable=0;points=[];" parent="_x4vGPY0edFWdDwLkudP-159" vertex="1" connectable="0">
          <mxGeometry x="0.0192" relative="1" as="geometry">
            <mxPoint as="offset" />
          </mxGeometry>
        </mxCell>
        <mxCell id="_x4vGPY0edFWdDwLkudP-161" value="" style="endArrow=block;html=1;rounded=0;strokeWidth=2;endFill=1;" parent="1" target="_x4vGPY0edFWdDwLkudP-5" edge="1">
          <mxGeometry width="50" height="50" relative="1" as="geometry">
            <mxPoint x="795" y="1220" as="sourcePoint" />
            <mxPoint x="675" y="1220" as="targetPoint" />
            <Array as="points">
              <mxPoint x="765" y="1220" />
            </Array>
          </mxGeometry>
        </mxCell>
        <mxCell id="_x4vGPY0edFWdDwLkudP-162" value="匹配结果" style="edgeLabel;html=1;align=center;verticalAlign=middle;resizable=0;points=[];" parent="_x4vGPY0edFWdDwLkudP-161" vertex="1" connectable="0">
          <mxGeometry x="0.782" y="2" relative="1" as="geometry">
            <mxPoint as="offset" />
          </mxGeometry>
        </mxCell>
        <mxCell id="_x4vGPY0edFWdDwLkudP-163" value="" style="endArrow=block;html=1;rounded=0;strokeWidth=2;endFill=1;strokeColor=#FF3333;" parent="1" source="_x4vGPY0edFWdDwLkudP-47" target="_x4vGPY0edFWdDwLkudP-17" edge="1">
          <mxGeometry width="50" height="50" relative="1" as="geometry">
            <mxPoint x="930" y="1340" as="sourcePoint" />
            <mxPoint x="540" y="1340" as="targetPoint" />
            <Array as="points">
              <mxPoint x="900" y="1340" />
            </Array>
          </mxGeometry>
        </mxCell>
        <mxCell id="_x4vGPY0edFWdDwLkudP-164" value="&lt;font color=&quot;#ff3333&quot;&gt;政策监听资金tdmq补担保审核&lt;/font&gt;" style="edgeLabel;html=1;align=center;verticalAlign=middle;resizable=0;points=[];" parent="_x4vGPY0edFWdDwLkudP-163" vertex="1" connectable="0">
          <mxGeometry x="0.0192" relative="1" as="geometry">
            <mxPoint as="offset" />
          </mxGeometry>
        </mxCell>
        <mxCell id="_x4vGPY0edFWdDwLkudP-165" value="" style="endArrow=block;html=1;rounded=0;strokeWidth=2;endFill=1;strokeColor=#FF3333;" parent="1" edge="1">
          <mxGeometry width="50" height="50" relative="1" as="geometry">
            <mxPoint x="535" y="1510" as="sourcePoint" />
            <mxPoint x="935" y="1510" as="targetPoint" />
            <Array as="points">
              <mxPoint x="905" y="1510" />
            </Array>
          </mxGeometry>
        </mxCell>
        <mxCell id="_x4vGPY0edFWdDwLkudP-166" value="&lt;font color=&quot;#ff3333&quot;&gt;资金监听 政策tdmq担保审核结果，需要加审核额度&lt;/font&gt;" style="edgeLabel;html=1;align=center;verticalAlign=middle;resizable=0;points=[];" parent="_x4vGPY0edFWdDwLkudP-165" vertex="1" connectable="0">
          <mxGeometry x="-0.0789" relative="1" as="geometry">
            <mxPoint as="offset" />
          </mxGeometry>
        </mxCell>
        <mxCell id="_x4vGPY0edFWdDwLkudP-167" value="" style="endArrow=block;html=1;rounded=0;strokeWidth=2;endFill=1;strokeColor=#FF3333;" parent="1" edge="1">
          <mxGeometry width="50" height="50" relative="1" as="geometry">
            <mxPoint x="935" y="1540" as="sourcePoint" />
            <mxPoint x="535" y="1540" as="targetPoint" />
            <Array as="points">
              <mxPoint x="895" y="1540" />
            </Array>
          </mxGeometry>
        </mxCell>
        <mxCell id="_x4vGPY0edFWdDwLkudP-168" value="&lt;font color=&quot;#ff3333&quot;&gt;主动查询补担保结果&lt;/font&gt;" style="edgeLabel;html=1;align=center;verticalAlign=middle;resizable=0;points=[];" parent="_x4vGPY0edFWdDwLkudP-167" vertex="1" connectable="0">
          <mxGeometry x="0.0192" relative="1" as="geometry">
            <mxPoint as="offset" />
          </mxGeometry>
        </mxCell>
        <mxCell id="_x4vGPY0edFWdDwLkudP-169" value="" style="endArrow=block;html=1;rounded=0;strokeWidth=2;endFill=1;strokeColor=#FF3333;" parent="1" edge="1">
          <mxGeometry width="50" height="50" relative="1" as="geometry">
            <mxPoint x="535" y="1560" as="sourcePoint" />
            <mxPoint x="935" y="1560" as="targetPoint" />
            <Array as="points">
              <mxPoint x="890" y="1560" />
            </Array>
          </mxGeometry>
        </mxCell>
        <mxCell id="_x4vGPY0edFWdDwLkudP-170" value="&lt;font color=&quot;#ff3333&quot;&gt;返回补担保审核结果&lt;/font&gt;" style="edgeLabel;html=1;align=center;verticalAlign=middle;resizable=0;points=[];" parent="_x4vGPY0edFWdDwLkudP-169" vertex="1" connectable="0">
          <mxGeometry x="0.0192" relative="1" as="geometry">
            <mxPoint as="offset" />
          </mxGeometry>
        </mxCell>
        <mxCell id="_x4vGPY0edFWdDwLkudP-171" value="" style="endArrow=block;html=1;rounded=0;strokeWidth=2;endFill=1;strokeColor=#FF3333;" parent="1" source="_x4vGPY0edFWdDwLkudP-27" target="_x4vGPY0edFWdDwLkudP-58" edge="1">
          <mxGeometry width="50" height="50" relative="1" as="geometry">
            <mxPoint x="680" y="1380" as="sourcePoint" />
            <mxPoint x="1280" y="1380" as="targetPoint" />
            <Array as="points">
              <mxPoint x="765" y="1380" />
            </Array>
          </mxGeometry>
        </mxCell>
        <mxCell id="_x4vGPY0edFWdDwLkudP-172" value="&lt;font color=&quot;#ff3333&quot;&gt;越信担保审核请求&lt;/font&gt;" style="edgeLabel;html=1;align=center;verticalAlign=middle;resizable=0;points=[];" parent="_x4vGPY0edFWdDwLkudP-171" vertex="1" connectable="0">
          <mxGeometry x="0.5557" y="1" relative="1" as="geometry">
            <mxPoint x="40" as="offset" />
          </mxGeometry>
        </mxCell>
        <mxCell id="_x4vGPY0edFWdDwLkudP-173" value="" style="endArrow=block;html=1;rounded=0;strokeWidth=1;endFill=1;strokeColor=#FF3333;" parent="1" source="_x4vGPY0edFWdDwLkudP-58" target="_x4vGPY0edFWdDwLkudP-27" edge="1">
          <mxGeometry width="50" height="50" relative="1" as="geometry">
            <mxPoint x="1280" y="1400" as="sourcePoint" />
            <mxPoint x="680" y="1400" as="targetPoint" />
            <Array as="points">
              <mxPoint x="1130" y="1400" />
              <mxPoint x="1070" y="1400" />
              <mxPoint x="770" y="1400" />
            </Array>
          </mxGeometry>
        </mxCell>
        <mxCell id="_x4vGPY0edFWdDwLkudP-174" value="&lt;font color=&quot;#ff3333&quot;&gt;越信担保结果回调&lt;/font&gt;" style="edgeLabel;html=1;align=center;verticalAlign=middle;resizable=0;points=[];" parent="_x4vGPY0edFWdDwLkudP-173" vertex="1" connectable="0">
          <mxGeometry x="-0.6885" relative="1" as="geometry">
            <mxPoint as="offset" />
          </mxGeometry>
        </mxCell>
        <mxCell id="_x4vGPY0edFWdDwLkudP-175" value="" style="endArrow=block;html=1;rounded=0;strokeWidth=2;endFill=1;strokeColor=#FF3333;" parent="1" source="_x4vGPY0edFWdDwLkudP-27" target="_x4vGPY0edFWdDwLkudP-58" edge="1">
          <mxGeometry width="50" height="50" relative="1" as="geometry">
            <mxPoint x="680" y="1420" as="sourcePoint" />
            <mxPoint x="1280" y="1420" as="targetPoint" />
            <Array as="points">
              <mxPoint x="760" y="1420" />
            </Array>
          </mxGeometry>
        </mxCell>
        <mxCell id="_x4vGPY0edFWdDwLkudP-176" value="&lt;font color=&quot;#ff3333&quot;&gt;越信结果主动查询&lt;/font&gt;" style="edgeLabel;html=1;align=center;verticalAlign=middle;resizable=0;points=[];" parent="_x4vGPY0edFWdDwLkudP-175" vertex="1" connectable="0">
          <mxGeometry x="0.5557" y="1" relative="1" as="geometry">
            <mxPoint x="40" as="offset" />
          </mxGeometry>
        </mxCell>
        <mxCell id="_x4vGPY0edFWdDwLkudP-177" value="" style="endArrow=block;html=1;rounded=0;strokeWidth=1;endFill=1;strokeColor=#FF3333;" parent="1" source="_x4vGPY0edFWdDwLkudP-58" target="_x4vGPY0edFWdDwLkudP-27" edge="1">
          <mxGeometry width="50" height="50" relative="1" as="geometry">
            <mxPoint x="1280" y="1440" as="sourcePoint" />
            <mxPoint x="680" y="1440" as="targetPoint" />
            <Array as="points">
              <mxPoint x="1135" y="1440" />
              <mxPoint x="1075" y="1440" />
              <mxPoint x="775" y="1440" />
            </Array>
          </mxGeometry>
        </mxCell>
        <mxCell id="_x4vGPY0edFWdDwLkudP-178" value="&lt;font color=&quot;#ff3333&quot;&gt;越信结果返回&lt;/font&gt;" style="edgeLabel;html=1;align=center;verticalAlign=middle;resizable=0;points=[];" parent="_x4vGPY0edFWdDwLkudP-177" vertex="1" connectable="0">
          <mxGeometry x="-0.6885" relative="1" as="geometry">
            <mxPoint as="offset" />
          </mxGeometry>
        </mxCell>
        <mxCell id="_x4vGPY0edFWdDwLkudP-179" value="" style="endArrow=block;html=1;rounded=0;strokeWidth=2;endFill=1;strokeColor=#FF3333;" parent="1" edge="1">
          <mxGeometry width="50" height="50" relative="1" as="geometry">
            <mxPoint x="1305" y="1380" as="sourcePoint" />
            <mxPoint x="1425" y="1380" as="targetPoint" />
            <Array as="points">
              <mxPoint x="1385" y="1380" />
            </Array>
          </mxGeometry>
        </mxCell>
        <mxCell id="_x4vGPY0edFWdDwLkudP-180" value="&lt;font color=&quot;#ff3333&quot;&gt;担保审核&lt;/font&gt;" style="edgeLabel;html=1;align=center;verticalAlign=middle;resizable=0;points=[];" parent="_x4vGPY0edFWdDwLkudP-179" vertex="1" connectable="0">
          <mxGeometry x="0.0292" y="-3" relative="1" as="geometry">
            <mxPoint y="-3" as="offset" />
          </mxGeometry>
        </mxCell>
        <mxCell id="_x4vGPY0edFWdDwLkudP-181" value="" style="endArrow=block;html=1;rounded=0;strokeWidth=2;endFill=1;strokeColor=#FF3333;" parent="1" edge="1">
          <mxGeometry width="50" height="50" relative="1" as="geometry">
            <mxPoint x="1305" y="1420" as="sourcePoint" />
            <mxPoint x="1425" y="1420" as="targetPoint" />
            <Array as="points">
              <mxPoint x="1390" y="1420" />
            </Array>
          </mxGeometry>
        </mxCell>
        <mxCell id="_x4vGPY0edFWdDwLkudP-182" value="&lt;font color=&quot;#ff3333&quot;&gt;主动查询&lt;/font&gt;" style="edgeLabel;html=1;align=center;verticalAlign=middle;resizable=0;points=[];" parent="_x4vGPY0edFWdDwLkudP-181" vertex="1" connectable="0">
          <mxGeometry x="0.0292" y="-3" relative="1" as="geometry">
            <mxPoint y="-3" as="offset" />
          </mxGeometry>
        </mxCell>
        <mxCell id="_x4vGPY0edFWdDwLkudP-183" value="" style="endArrow=block;html=1;rounded=0;strokeWidth=1;endFill=1;strokeColor=#FF3333;" parent="1" edge="1">
          <mxGeometry width="50" height="50" relative="1" as="geometry">
            <mxPoint x="1425" y="1400" as="sourcePoint" />
            <mxPoint x="1305" y="1400" as="targetPoint" />
            <Array as="points">
              <mxPoint x="1390" y="1400" />
            </Array>
          </mxGeometry>
        </mxCell>
        <mxCell id="_x4vGPY0edFWdDwLkudP-184" value="&lt;font color=&quot;#ff3333&quot;&gt;结果回调&lt;/font&gt;" style="edgeLabel;html=1;align=center;verticalAlign=middle;resizable=0;points=[];" parent="_x4vGPY0edFWdDwLkudP-183" vertex="1" connectable="0">
          <mxGeometry x="-0.0793" y="-1" relative="1" as="geometry">
            <mxPoint as="offset" />
          </mxGeometry>
        </mxCell>
        <mxCell id="_x4vGPY0edFWdDwLkudP-185" value="" style="endArrow=block;html=1;rounded=0;strokeWidth=1;endFill=1;strokeColor=#FF3333;" parent="1" edge="1">
          <mxGeometry width="50" height="50" relative="1" as="geometry">
            <mxPoint x="1425" y="1440" as="sourcePoint" />
            <mxPoint x="1305" y="1440" as="targetPoint" />
            <Array as="points">
              <mxPoint x="1385" y="1440" />
            </Array>
          </mxGeometry>
        </mxCell>
        <mxCell id="_x4vGPY0edFWdDwLkudP-186" value="&lt;font color=&quot;#ff3333&quot;&gt;结果回调&lt;/font&gt;" style="edgeLabel;html=1;align=center;verticalAlign=middle;resizable=0;points=[];" parent="_x4vGPY0edFWdDwLkudP-185" vertex="1" connectable="0">
          <mxGeometry x="-0.0364" relative="1" as="geometry">
            <mxPoint as="offset" />
          </mxGeometry>
        </mxCell>
        <mxCell id="_x4vGPY0edFWdDwLkudP-187" value="" style="endArrow=classic;html=1;rounded=0;strokeWidth=2;strokeColor=#FF3333;" parent="1" edge="1">
          <mxGeometry width="50" height="50" relative="1" as="geometry">
            <mxPoint x="1445" y="1420" as="sourcePoint" />
            <mxPoint x="1445" y="1450" as="targetPoint" />
            <Array as="points">
              <mxPoint x="1485" y="1420" />
              <mxPoint x="1485" y="1450" />
            </Array>
          </mxGeometry>
        </mxCell>
        <mxCell id="_x4vGPY0edFWdDwLkudP-188" value="&lt;font color=&quot;#ff3333&quot;&gt;查征后风控&lt;/font&gt;" style="edgeLabel;html=1;align=center;verticalAlign=middle;resizable=0;points=[];" parent="_x4vGPY0edFWdDwLkudP-187" vertex="1" connectable="0">
          <mxGeometry x="-0.0111" y="1" relative="1" as="geometry">
            <mxPoint as="offset" />
          </mxGeometry>
        </mxCell>
        <mxCell id="_x4vGPY0edFWdDwLkudP-189" value="" style="endArrow=block;html=1;rounded=0;strokeWidth=2;endFill=1;strokeColor=#FF3333;" parent="1" edge="1">
          <mxGeometry width="50" height="50" relative="1" as="geometry">
            <mxPoint x="1445" y="1380" as="sourcePoint" />
            <mxPoint x="1565" y="1380" as="targetPoint" />
            <Array as="points">
              <mxPoint x="1520" y="1380" />
            </Array>
          </mxGeometry>
        </mxCell>
        <mxCell id="_x4vGPY0edFWdDwLkudP-190" value="&lt;font color=&quot;#ff3333&quot;&gt;查征&lt;/font&gt;" style="edgeLabel;html=1;align=center;verticalAlign=middle;resizable=0;points=[];" parent="_x4vGPY0edFWdDwLkudP-189" vertex="1" connectable="0">
          <mxGeometry x="0.0292" y="-3" relative="1" as="geometry">
            <mxPoint y="-3" as="offset" />
          </mxGeometry>
        </mxCell>
        <mxCell id="_x4vGPY0edFWdDwLkudP-191" value="" style="endArrow=block;html=1;rounded=0;strokeWidth=2;endFill=1;strokeColor=#FF3333;" parent="1" edge="1">
          <mxGeometry width="50" height="50" relative="1" as="geometry">
            <mxPoint x="1565" y="1400" as="sourcePoint" />
            <mxPoint x="1445" y="1400" as="targetPoint" />
            <Array as="points">
              <mxPoint x="1525" y="1400" />
            </Array>
          </mxGeometry>
        </mxCell>
        <mxCell id="_x4vGPY0edFWdDwLkudP-192" value="&lt;font color=&quot;#ff3333&quot;&gt;查征结果返回&lt;/font&gt;" style="edgeLabel;html=1;align=center;verticalAlign=middle;resizable=0;points=[];" parent="_x4vGPY0edFWdDwLkudP-191" vertex="1" connectable="0">
          <mxGeometry x="0.0068" y="1" relative="1" as="geometry">
            <mxPoint as="offset" />
          </mxGeometry>
        </mxCell>
        <mxCell id="_x4vGPY0edFWdDwLkudP-193" value="" style="endArrow=classic;html=1;rounded=0;strokeWidth=2;strokeColor=#FF3333;" parent="1" edge="1">
          <mxGeometry width="50" height="50" relative="1" as="geometry">
            <mxPoint x="1585" y="1380" as="sourcePoint" />
            <mxPoint x="1585" y="1410" as="targetPoint" />
            <Array as="points">
              <mxPoint x="1630" y="1380" />
              <mxPoint x="1630" y="1410" />
            </Array>
          </mxGeometry>
        </mxCell>
        <mxCell id="_x4vGPY0edFWdDwLkudP-194" value="&lt;font color=&quot;#ff3333&quot;&gt;查征+征信规则&lt;/font&gt;" style="edgeLabel;html=1;align=center;verticalAlign=middle;resizable=0;points=[];" parent="_x4vGPY0edFWdDwLkudP-193" vertex="1" connectable="0">
          <mxGeometry x="-0.0111" y="1" relative="1" as="geometry">
            <mxPoint as="offset" />
          </mxGeometry>
        </mxCell>
        <mxCell id="_x4vGPY0edFWdDwLkudP-195" value="" style="endArrow=block;html=1;rounded=0;strokeWidth=2;endFill=1;" parent="1" source="_x4vGPY0edFWdDwLkudP-50" target="_x4vGPY0edFWdDwLkudP-75" edge="1">
          <mxGeometry width="50" height="50" relative="1" as="geometry">
            <mxPoint x="964.33" y="1710" as="sourcePoint" />
            <mxPoint x="1070" y="1710" as="targetPoint" />
            <Array as="points">
              <mxPoint x="1059.33" y="1710" />
            </Array>
          </mxGeometry>
        </mxCell>
        <mxCell id="_x4vGPY0edFWdDwLkudP-196" value="授信请求" style="edgeLabel;html=1;align=center;verticalAlign=middle;resizable=0;points=[];" parent="_x4vGPY0edFWdDwLkudP-195" vertex="1" connectable="0">
          <mxGeometry x="-0.0722" relative="1" as="geometry">
            <mxPoint as="offset" />
          </mxGeometry>
        </mxCell>
        <mxCell id="_x4vGPY0edFWdDwLkudP-197" value="" style="endArrow=block;html=1;rounded=0;strokeWidth=2;endFill=1;" parent="1" source="_x4vGPY0edFWdDwLkudP-75" target="_x4vGPY0edFWdDwLkudP-50" edge="1">
          <mxGeometry width="50" height="50" relative="1" as="geometry">
            <mxPoint x="1070" y="1730" as="sourcePoint" />
            <mxPoint x="964.33" y="1730" as="targetPoint" />
            <Array as="points">
              <mxPoint x="1059.33" y="1730" />
            </Array>
          </mxGeometry>
        </mxCell>
        <mxCell id="_x4vGPY0edFWdDwLkudP-198" value="授信结果" style="edgeLabel;html=1;align=center;verticalAlign=middle;resizable=0;points=[];" parent="_x4vGPY0edFWdDwLkudP-197" vertex="1" connectable="0">
          <mxGeometry x="0.0192" relative="1" as="geometry">
            <mxPoint as="offset" />
          </mxGeometry>
        </mxCell>
        <mxCell id="_x4vGPY0edFWdDwLkudP-199" value="" style="endArrow=classic;html=1;rounded=0;strokeWidth=2;" parent="1" edge="1">
          <mxGeometry width="50" height="50" relative="1" as="geometry">
            <mxPoint x="1095" y="1710" as="sourcePoint" />
            <mxPoint x="1095" y="1750" as="targetPoint" />
            <Array as="points">
              <mxPoint x="1135" y="1710" />
              <mxPoint x="1135" y="1730" />
              <mxPoint x="1135" y="1750" />
            </Array>
          </mxGeometry>
        </mxCell>
        <mxCell id="_x4vGPY0edFWdDwLkudP-200" value="内部处理" style="edgeLabel;html=1;align=center;verticalAlign=middle;resizable=0;points=[];" parent="_x4vGPY0edFWdDwLkudP-199" vertex="1" connectable="0">
          <mxGeometry x="-0.0111" y="1" relative="1" as="geometry">
            <mxPoint x="24" y="1" as="offset" />
          </mxGeometry>
        </mxCell>
        <mxCell id="_x4vGPY0edFWdDwLkudP-201" value="" style="endArrow=block;html=1;rounded=0;strokeWidth=2;endFill=1;" parent="1" source="_x4vGPY0edFWdDwLkudP-50" target="_x4vGPY0edFWdDwLkudP-33" edge="1">
          <mxGeometry width="50" height="50" relative="1" as="geometry">
            <mxPoint x="930" y="1730" as="sourcePoint" />
            <mxPoint x="820" y="1730" as="targetPoint" />
            <Array as="points">
              <mxPoint x="914.3299999999999" y="1730" />
            </Array>
          </mxGeometry>
        </mxCell>
        <mxCell id="_x4vGPY0edFWdDwLkudP-202" value="匹配结果" style="edgeLabel;html=1;align=center;verticalAlign=middle;resizable=0;points=[];" parent="_x4vGPY0edFWdDwLkudP-201" vertex="1" connectable="0">
          <mxGeometry x="0.0192" relative="1" as="geometry">
            <mxPoint as="offset" />
          </mxGeometry>
        </mxCell>
        <mxCell id="_x4vGPY0edFWdDwLkudP-203" value="" style="endArrow=block;html=1;rounded=0;strokeWidth=2;endFill=1;" parent="1" source="_x4vGPY0edFWdDwLkudP-33" target="_x4vGPY0edFWdDwLkudP-5" edge="1">
          <mxGeometry width="50" height="50" relative="1" as="geometry">
            <mxPoint x="790" y="1730" as="sourcePoint" />
            <mxPoint x="260" y="1730" as="targetPoint" />
            <Array as="points">
              <mxPoint x="769.3299999999999" y="1730" />
            </Array>
          </mxGeometry>
        </mxCell>
        <mxCell id="_x4vGPY0edFWdDwLkudP-204" value="匹配结果" style="edgeLabel;html=1;align=center;verticalAlign=middle;resizable=0;points=[];" parent="_x4vGPY0edFWdDwLkudP-203" vertex="1" connectable="0">
          <mxGeometry x="0.804" y="1" relative="1" as="geometry">
            <mxPoint as="offset" />
          </mxGeometry>
        </mxCell>
        <mxCell id="_x4vGPY0edFWdDwLkudP-205" value="" style="endArrow=block;html=1;rounded=0;strokeWidth=4;endFill=1;" parent="1" edge="1">
          <mxGeometry width="50" height="50" relative="1" as="geometry">
            <mxPoint x="175" y="1820" as="sourcePoint" />
            <mxPoint x="225" y="1820" as="targetPoint" />
          </mxGeometry>
        </mxCell>
        <mxCell id="_x4vGPY0edFWdDwLkudP-206" value="要款" style="text;html=1;align=center;verticalAlign=middle;resizable=0;points=[];autosize=1;strokeColor=none;fillColor=none;" parent="1" vertex="1">
          <mxGeometry x="115" y="1808" width="50" height="30" as="geometry" />
        </mxCell>
        <mxCell id="_x4vGPY0edFWdDwLkudP-207" value="" style="endArrow=block;html=1;rounded=0;strokeWidth=4;endFill=1;" parent="1" edge="1">
          <mxGeometry width="50" height="50" relative="1" as="geometry">
            <mxPoint x="175" y="1960" as="sourcePoint" />
            <mxPoint x="225" y="1960" as="targetPoint" />
          </mxGeometry>
        </mxCell>
        <mxCell id="_x4vGPY0edFWdDwLkudP-208" value="放款" style="text;html=1;align=center;verticalAlign=middle;resizable=0;points=[];autosize=1;strokeColor=none;fillColor=none;" parent="1" vertex="1">
          <mxGeometry x="115" y="1948" width="50" height="30" as="geometry" />
        </mxCell>
        <mxCell id="_x4vGPY0edFWdDwLkudP-209" value="&lt;font style=&quot;font-size: 23px;&quot;&gt;小赢普惠&lt;/font&gt;" style="text;html=1;align=center;verticalAlign=middle;resizable=0;points=[];autosize=1;strokeColor=none;fillColor=none;" parent="1" vertex="1">
          <mxGeometry x="540" y="13" width="120" height="40" as="geometry" />
        </mxCell>
        <mxCell id="_x4vGPY0edFWdDwLkudP-210" value="&lt;font style=&quot;font-size: 21px;&quot;&gt;越信融担&lt;/font&gt;" style="text;html=1;align=center;verticalAlign=middle;resizable=0;points=[];autosize=1;strokeColor=none;fillColor=none;" parent="1" vertex="1">
          <mxGeometry x="1435" y="13" width="110" height="40" as="geometry" />
        </mxCell>
        <mxCell id="_x4vGPY0edFWdDwLkudP-211" value="" style="endArrow=block;html=1;rounded=0;strokeWidth=2;endFill=1;" parent="1" source="_x4vGPY0edFWdDwLkudP-5" target="_x4vGPY0edFWdDwLkudP-34" edge="1">
          <mxGeometry width="50" height="50" relative="1" as="geometry">
            <mxPoint x="260" y="1838" as="sourcePoint" />
            <mxPoint x="660" y="1838" as="targetPoint" />
            <Array as="points">
              <mxPoint x="615" y="1838" />
            </Array>
          </mxGeometry>
        </mxCell>
        <mxCell id="_x4vGPY0edFWdDwLkudP-212" value="确认要款" style="edgeLabel;html=1;align=center;verticalAlign=middle;resizable=0;points=[];" parent="_x4vGPY0edFWdDwLkudP-211" vertex="1" connectable="0">
          <mxGeometry x="-0.2816" y="1" relative="1" as="geometry">
            <mxPoint as="offset" />
          </mxGeometry>
        </mxCell>
        <mxCell id="_x4vGPY0edFWdDwLkudP-213" value="" style="endArrow=block;html=1;rounded=0;strokeWidth=2;endFill=1;" parent="1" edge="1">
          <mxGeometry width="50" height="50" relative="1" as="geometry">
            <mxPoint x="795" y="1868" as="sourcePoint" />
            <mxPoint x="255" y="1868" as="targetPoint" />
            <Array as="points">
              <mxPoint x="615" y="1868" />
            </Array>
          </mxGeometry>
        </mxCell>
        <mxCell id="_x4vGPY0edFWdDwLkudP-214" value="确认要款结果" style="edgeLabel;html=1;align=center;verticalAlign=middle;resizable=0;points=[];" parent="_x4vGPY0edFWdDwLkudP-213" vertex="1" connectable="0">
          <mxGeometry x="0.3213" y="1" relative="1" as="geometry">
            <mxPoint as="offset" />
          </mxGeometry>
        </mxCell>
        <mxCell id="_x4vGPY0edFWdDwLkudP-215" value="" style="endArrow=block;html=1;rounded=0;strokeWidth=2;endFill=1;" parent="1" edge="1">
          <mxGeometry width="50" height="50" relative="1" as="geometry">
            <mxPoint x="815" y="1838" as="sourcePoint" />
            <mxPoint x="935" y="1838" as="targetPoint" />
            <Array as="points">
              <mxPoint x="914.3299999999999" y="1838" />
            </Array>
          </mxGeometry>
        </mxCell>
        <mxCell id="_x4vGPY0edFWdDwLkudP-216" value="确认要款" style="edgeLabel;html=1;align=center;verticalAlign=middle;resizable=0;points=[];" parent="_x4vGPY0edFWdDwLkudP-215" vertex="1" connectable="0">
          <mxGeometry x="0.0192" relative="1" as="geometry">
            <mxPoint as="offset" />
          </mxGeometry>
        </mxCell>
        <mxCell id="_x4vGPY0edFWdDwLkudP-217" value="" style="endArrow=block;html=1;rounded=0;strokeWidth=2;endFill=1;" parent="1" edge="1">
          <mxGeometry width="50" height="50" relative="1" as="geometry">
            <mxPoint x="935" y="1870" as="sourcePoint" />
            <mxPoint x="815" y="1870" as="targetPoint" />
            <Array as="points">
              <mxPoint x="914.3299999999999" y="1870" />
            </Array>
          </mxGeometry>
        </mxCell>
        <mxCell id="_x4vGPY0edFWdDwLkudP-218" value="确认要款结果" style="edgeLabel;html=1;align=center;verticalAlign=middle;resizable=0;points=[];" parent="_x4vGPY0edFWdDwLkudP-217" vertex="1" connectable="0">
          <mxGeometry x="0.0192" relative="1" as="geometry">
            <mxPoint as="offset" />
          </mxGeometry>
        </mxCell>
        <mxCell id="_x4vGPY0edFWdDwLkudP-219" value="" style="endArrow=block;html=1;rounded=0;strokeWidth=2;endFill=1;" parent="1" edge="1">
          <mxGeometry width="50" height="50" relative="1" as="geometry">
            <mxPoint x="255" y="1970" as="sourcePoint" />
            <mxPoint x="795" y="1970" as="targetPoint" />
            <Array as="points">
              <mxPoint x="615" y="1970" />
            </Array>
          </mxGeometry>
        </mxCell>
        <mxCell id="_x4vGPY0edFWdDwLkudP-220" value="可放款通知" style="edgeLabel;html=1;align=center;verticalAlign=middle;resizable=0;points=[];" parent="_x4vGPY0edFWdDwLkudP-219" vertex="1" connectable="0">
          <mxGeometry x="-0.2816" y="1" relative="1" as="geometry">
            <mxPoint as="offset" />
          </mxGeometry>
        </mxCell>
        <mxCell id="_x4vGPY0edFWdDwLkudP-221" value="" style="endArrow=block;html=1;rounded=0;strokeWidth=2;endFill=1;" parent="1" edge="1">
          <mxGeometry width="50" height="50" relative="1" as="geometry">
            <mxPoint x="795" y="1990" as="sourcePoint" />
            <mxPoint x="255" y="1990" as="targetPoint" />
            <Array as="points">
              <mxPoint x="615" y="1990" />
            </Array>
          </mxGeometry>
        </mxCell>
        <mxCell id="_x4vGPY0edFWdDwLkudP-222" value="放款结果" style="edgeLabel;html=1;align=center;verticalAlign=middle;resizable=0;points=[];" parent="_x4vGPY0edFWdDwLkudP-221" vertex="1" connectable="0">
          <mxGeometry x="0.2996" relative="1" as="geometry">
            <mxPoint as="offset" />
          </mxGeometry>
        </mxCell>
        <mxCell id="_x4vGPY0edFWdDwLkudP-223" value="" style="endArrow=block;html=1;rounded=0;strokeWidth=2;endFill=1;" parent="1" source="_x4vGPY0edFWdDwLkudP-35" target="_x4vGPY0edFWdDwLkudP-54" edge="1">
          <mxGeometry width="50" height="50" relative="1" as="geometry">
            <mxPoint x="825" y="1968" as="sourcePoint" />
            <mxPoint x="945" y="1968" as="targetPoint" />
            <Array as="points">
              <mxPoint x="924.3299999999999" y="1968" />
            </Array>
          </mxGeometry>
        </mxCell>
        <mxCell id="_x4vGPY0edFWdDwLkudP-224" value="放款请求" style="edgeLabel;html=1;align=center;verticalAlign=middle;resizable=0;points=[];" parent="_x4vGPY0edFWdDwLkudP-223" vertex="1" connectable="0">
          <mxGeometry x="0.0192" relative="1" as="geometry">
            <mxPoint as="offset" />
          </mxGeometry>
        </mxCell>
        <mxCell id="_x4vGPY0edFWdDwLkudP-225" value="" style="endArrow=block;html=1;rounded=0;strokeWidth=2;endFill=1;" parent="1" source="_x4vGPY0edFWdDwLkudP-54" target="_x4vGPY0edFWdDwLkudP-35" edge="1">
          <mxGeometry width="50" height="50" relative="1" as="geometry">
            <mxPoint x="945" y="1988" as="sourcePoint" />
            <mxPoint x="825" y="1988" as="targetPoint" />
            <Array as="points">
              <mxPoint x="934.3299999999999" y="1988" />
            </Array>
          </mxGeometry>
        </mxCell>
        <mxCell id="_x4vGPY0edFWdDwLkudP-226" value="放款结果" style="edgeLabel;html=1;align=center;verticalAlign=middle;resizable=0;points=[];" parent="_x4vGPY0edFWdDwLkudP-225" vertex="1" connectable="0">
          <mxGeometry x="0.0192" relative="1" as="geometry">
            <mxPoint as="offset" />
          </mxGeometry>
        </mxCell>
        <mxCell id="_x4vGPY0edFWdDwLkudP-227" value="" style="endArrow=block;html=1;rounded=0;strokeWidth=2;endFill=1;" parent="1" source="_x4vGPY0edFWdDwLkudP-54" target="_x4vGPY0edFWdDwLkudP-76" edge="1">
          <mxGeometry width="50" height="50" relative="1" as="geometry">
            <mxPoint x="960" y="1970" as="sourcePoint" />
            <mxPoint x="1070" y="1970" as="targetPoint" />
            <Array as="points">
              <mxPoint x="1059.33" y="1970" />
            </Array>
          </mxGeometry>
        </mxCell>
        <mxCell id="_x4vGPY0edFWdDwLkudP-228" value="放款请求" style="edgeLabel;html=1;align=center;verticalAlign=middle;resizable=0;points=[];" parent="_x4vGPY0edFWdDwLkudP-227" vertex="1" connectable="0">
          <mxGeometry x="0.0192" relative="1" as="geometry">
            <mxPoint as="offset" />
          </mxGeometry>
        </mxCell>
        <mxCell id="_x4vGPY0edFWdDwLkudP-229" value="" style="endArrow=block;html=1;rounded=0;strokeWidth=2;endFill=1;" parent="1" source="_x4vGPY0edFWdDwLkudP-76" target="_x4vGPY0edFWdDwLkudP-54" edge="1">
          <mxGeometry width="50" height="50" relative="1" as="geometry">
            <mxPoint x="1070" y="1990" as="sourcePoint" />
            <mxPoint x="960" y="1990" as="targetPoint" />
            <Array as="points">
              <mxPoint x="1064.33" y="1990" />
            </Array>
          </mxGeometry>
        </mxCell>
        <mxCell id="_x4vGPY0edFWdDwLkudP-230" value="放款结果" style="edgeLabel;html=1;align=center;verticalAlign=middle;resizable=0;points=[];" parent="_x4vGPY0edFWdDwLkudP-229" vertex="1" connectable="0">
          <mxGeometry x="0.0192" relative="1" as="geometry">
            <mxPoint as="offset" />
          </mxGeometry>
        </mxCell>
        <mxCell id="_x4vGPY0edFWdDwLkudP-231" value="" style="endArrow=classic;html=1;rounded=0;strokeWidth=2;" parent="1" edge="1">
          <mxGeometry width="50" height="50" relative="1" as="geometry">
            <mxPoint x="1095" y="1970" as="sourcePoint" />
            <mxPoint x="1095" y="2010" as="targetPoint" />
            <Array as="points">
              <mxPoint x="1140" y="1970" />
              <mxPoint x="1140" y="1990" />
              <mxPoint x="1140" y="2010" />
            </Array>
          </mxGeometry>
        </mxCell>
        <mxCell id="_x4vGPY0edFWdDwLkudP-232" value="内部处理" style="edgeLabel;html=1;align=center;verticalAlign=middle;resizable=0;points=[];" parent="_x4vGPY0edFWdDwLkudP-231" vertex="1" connectable="0">
          <mxGeometry x="-0.0111" y="1" relative="1" as="geometry">
            <mxPoint x="24" y="1" as="offset" />
          </mxGeometry>
        </mxCell>
        <mxCell id="_x4vGPY0edFWdDwLkudP-233" value="" style="html=1;points=[[0,0,0,0,5],[0,1,0,0,-5],[1,0,0,0,5],[1,1,0,0,-5]];perimeter=orthogonalPerimeter;outlineConnect=0;targetShapes=umlLifeline;portConstraint=eastwest;newEdgeStyle={&quot;curved&quot;:0,&quot;rounded&quot;:0};" parent="1" vertex="1">
          <mxGeometry x="1285" y="2050" width="20" height="80" as="geometry" />
        </mxCell>
        <mxCell id="_x4vGPY0edFWdDwLkudP-234" value="" style="endArrow=block;html=1;rounded=0;strokeWidth=2;endFill=1;" parent="1" source="_x4vGPY0edFWdDwLkudP-77" target="_x4vGPY0edFWdDwLkudP-233" edge="1">
          <mxGeometry width="50" height="50" relative="1" as="geometry">
            <mxPoint x="1100" y="2080" as="sourcePoint" />
            <mxPoint x="1220" y="2080" as="targetPoint" />
            <Array as="points">
              <mxPoint x="1204.33" y="2080" />
            </Array>
          </mxGeometry>
        </mxCell>
        <mxCell id="_x4vGPY0edFWdDwLkudP-235" value="担保数据" style="edgeLabel;html=1;align=center;verticalAlign=middle;resizable=0;points=[];" parent="_x4vGPY0edFWdDwLkudP-234" vertex="1" connectable="0">
          <mxGeometry x="0.0192" relative="1" as="geometry">
            <mxPoint as="offset" />
          </mxGeometry>
        </mxCell>
        <mxCell id="_x4vGPY0edFWdDwLkudP-236" value="" style="endArrow=block;html=1;rounded=0;endFill=1;strokeWidth=2;strokeColor=#FF3333;" parent="1" edge="1">
          <mxGeometry width="50" height="50" relative="1" as="geometry">
            <mxPoint x="535" y="1390" as="sourcePoint" />
            <mxPoint x="655" y="1390" as="targetPoint" />
          </mxGeometry>
        </mxCell>
        <mxCell id="_x4vGPY0edFWdDwLkudP-237" value="&lt;font color=&quot;#ff3333&quot;&gt;补越信担保申请&lt;br&gt;轮询获取结果&lt;/font&gt;" style="edgeLabel;html=1;align=center;verticalAlign=middle;resizable=0;points=[];" parent="_x4vGPY0edFWdDwLkudP-236" vertex="1" connectable="0">
          <mxGeometry x="-0.2333" y="-1" relative="1" as="geometry">
            <mxPoint x="9" as="offset" />
          </mxGeometry>
        </mxCell>
        <mxCell id="_x4vGPY0edFWdDwLkudP-238" value="" style="endArrow=block;html=1;rounded=0;endFill=1;strokeWidth=2;strokeColor=#FF3333;" parent="1" source="_x4vGPY0edFWdDwLkudP-27" target="_x4vGPY0edFWdDwLkudP-17" edge="1">
          <mxGeometry width="50" height="50" relative="1" as="geometry">
            <mxPoint x="665" y="1425" as="sourcePoint" />
            <mxPoint x="545" y="1425" as="targetPoint" />
          </mxGeometry>
        </mxCell>
        <mxCell id="_x4vGPY0edFWdDwLkudP-239" value="&lt;font color=&quot;#ff3333&quot;&gt;越信担保结果&lt;/font&gt;" style="edgeLabel;html=1;align=center;verticalAlign=middle;resizable=0;points=[];" parent="_x4vGPY0edFWdDwLkudP-238" vertex="1" connectable="0">
          <mxGeometry x="0.2328" relative="1" as="geometry">
            <mxPoint x="9" as="offset" />
          </mxGeometry>
        </mxCell>
        <mxCell id="_x4vGPY0edFWdDwLkudP-240" value="&lt;font color=&quot;#ff3333&quot;&gt;&lt;b&gt;补查征场景，存在不真实发起查征逻辑，由风控控制&lt;/b&gt;&lt;/font&gt;" style="ellipse;whiteSpace=wrap;html=1;strokeWidth=2;strokeColor=#FF3333;" parent="1" vertex="1">
          <mxGeometry x="1445" y="1540" width="120" height="80" as="geometry" />
        </mxCell>
        <mxCell id="_x4vGPY0edFWdDwLkudP-241" value="" style="endArrow=classic;html=1;rounded=0;entryX=0.379;entryY=0.665;entryDx=0;entryDy=0;entryPerimeter=0;strokeWidth=4;strokeColor=#FF3333;" parent="1" target="_x4vGPY0edFWdDwLkudP-1" edge="1">
          <mxGeometry width="50" height="50" relative="1" as="geometry">
            <mxPoint x="1500" y="1540" as="sourcePoint" />
            <mxPoint x="1550" y="1490" as="targetPoint" />
          </mxGeometry>
        </mxCell>
        <mxCell id="_x4vGPY0edFWdDwLkudP-242" value="&lt;font color=&quot;#ff3333&quot;&gt;&lt;b&gt;1、申请接口，申请成功直接返回&lt;br&gt;2、轮询查询结果接口&lt;br&gt;&lt;/b&gt;&lt;/font&gt;" style="ellipse;whiteSpace=wrap;html=1;strokeWidth=2;strokeColor=#FF3333;fillColor=none;" parent="1" vertex="1">
          <mxGeometry x="650" y="420" width="145" height="110" as="geometry" />
        </mxCell>
        <mxCell id="_x4vGPY0edFWdDwLkudP-243" value="" style="endArrow=classic;html=1;rounded=0;exitX=0;exitY=0;exitDx=0;exitDy=0;entryX=0.454;entryY=0.146;entryDx=0;entryDy=0;entryPerimeter=0;strokeWidth=2;strokeColor=#FF3333;" parent="1" source="_x4vGPY0edFWdDwLkudP-242" target="_x4vGPY0edFWdDwLkudP-2" edge="1">
          <mxGeometry width="50" height="50" relative="1" as="geometry">
            <mxPoint x="590" y="440" as="sourcePoint" />
            <mxPoint x="640" y="390" as="targetPoint" />
          </mxGeometry>
        </mxCell>
        <mxCell id="_x4vGPY0edFWdDwLkudP-244" value="" style="endArrow=block;html=1;rounded=0;strokeWidth=1;endFill=1;strokeColor=#FF3333;" parent="1" source="_x4vGPY0edFWdDwLkudP-26" target="_x4vGPY0edFWdDwLkudP-14" edge="1">
          <mxGeometry width="50" height="50" relative="1" as="geometry">
            <mxPoint x="650" y="710" as="sourcePoint" />
            <mxPoint x="540" y="710" as="targetPoint" />
            <Array as="points">
              <mxPoint x="625" y="710" />
            </Array>
          </mxGeometry>
        </mxCell>
        <mxCell id="_x4vGPY0edFWdDwLkudP-245" value="&lt;font color=&quot;#ff3333&quot;&gt;结果返回&lt;/font&gt;" style="edgeLabel;html=1;align=center;verticalAlign=middle;resizable=0;points=[];" parent="_x4vGPY0edFWdDwLkudP-244" vertex="1" connectable="0">
          <mxGeometry x="0.0095" relative="1" as="geometry">
            <mxPoint as="offset" />
          </mxGeometry>
        </mxCell>
        <mxCell id="_x4vGPY0edFWdDwLkudP-246" value="" style="endArrow=block;html=1;rounded=0;strokeWidth=2;endFill=1;strokeColor=#FF3333;" parent="1" source="_x4vGPY0edFWdDwLkudP-7" target="_x4vGPY0edFWdDwLkudP-25" edge="1">
          <mxGeometry width="50" height="50" relative="1" as="geometry">
            <mxPoint x="540" y="300" as="sourcePoint" />
            <mxPoint x="650" y="300" as="targetPoint" />
            <Array as="points">
              <mxPoint x="620" y="300" />
            </Array>
          </mxGeometry>
        </mxCell>
        <mxCell id="_x4vGPY0edFWdDwLkudP-247" value="&lt;font color=&quot;#ff3333&quot;&gt;越信担保申请&lt;br&gt;&lt;/font&gt;" style="edgeLabel;html=1;align=center;verticalAlign=middle;resizable=0;points=[];" parent="_x4vGPY0edFWdDwLkudP-246" vertex="1" connectable="0">
          <mxGeometry x="0.0292" y="-3" relative="1" as="geometry">
            <mxPoint y="-3" as="offset" />
          </mxGeometry>
        </mxCell>
        <mxCell id="_x4vGPY0edFWdDwLkudP-248" value="" style="endArrow=block;html=1;rounded=0;strokeWidth=1;endFill=1;strokeColor=#FF3333;" parent="1" source="_x4vGPY0edFWdDwLkudP-25" target="_x4vGPY0edFWdDwLkudP-7" edge="1">
          <mxGeometry width="50" height="50" relative="1" as="geometry">
            <mxPoint x="650" y="320" as="sourcePoint" />
            <mxPoint x="540" y="320" as="targetPoint" />
            <Array as="points">
              <mxPoint x="610" y="320" />
            </Array>
          </mxGeometry>
        </mxCell>
        <mxCell id="_x4vGPY0edFWdDwLkudP-249" value="&lt;font color=&quot;#ff3333&quot;&gt;申请结果返回&lt;/font&gt;" style="edgeLabel;html=1;align=center;verticalAlign=middle;resizable=0;points=[];" parent="_x4vGPY0edFWdDwLkudP-248" vertex="1" connectable="0">
          <mxGeometry x="0.0095" relative="1" as="geometry">
            <mxPoint as="offset" />
          </mxGeometry>
        </mxCell>
        <mxCell id="_x4vGPY0edFWdDwLkudP-250" value="" style="endArrow=block;html=1;rounded=0;strokeWidth=2;endFill=1;strokeColor=#FF3333;" parent="1" source="_x4vGPY0edFWdDwLkudP-26" target="_x4vGPY0edFWdDwLkudP-14" edge="1">
          <mxGeometry width="50" height="50" relative="1" as="geometry">
            <mxPoint x="650" y="670" as="sourcePoint" />
            <mxPoint x="540" y="670" as="targetPoint" />
            <Array as="points">
              <mxPoint x="635" y="670" />
            </Array>
          </mxGeometry>
        </mxCell>
        <mxCell id="_x4vGPY0edFWdDwLkudP-252" value="&lt;font style=&quot;color: rgb(255, 51, 51);&quot;&gt;申请成功直接返回&lt;/font&gt;" style="edgeLabel;html=1;align=center;verticalAlign=middle;resizable=0;points=[];" parent="_x4vGPY0edFWdDwLkudP-250" vertex="1" connectable="0">
          <mxGeometry x="0.0266" relative="1" as="geometry">
            <mxPoint as="offset" />
          </mxGeometry>
        </mxCell>
      </root>
    </mxGraphModel>
  </diagram>
</mxfile>
